<?xml version="1.0" encoding="utf-8"?>
<!-- Generator: Adobe Illustrator 26.0.1, SVG Export Plug-In . SVG Version: 6.00 Build 0)  -->
<svg version="1.1" id="Lag_1" xmlns="http://www.w3.org/2000/svg" xmlns:xlink="http://www.w3.org/1999/xlink" x="0px" y="0px"
	 viewBox="0 0 1920 1080" style="enable-background:new 0 0 1920 1080;" xml:space="preserve">
<style type="text/css">
	.st0{fill:none;}
	.st1{fill:#C6DD7F;}
	.st2{fill:#E9DDB7;}
	.st3{fill:#A6D0E4;}
	.st4{fill:#00427E;}
	.st5{opacity:0.4;fill:#9DDCF9;enable-background:new    ;}
	.st6{opacity:0.8;fill:#786C60;stroke:#1D1D1B;stroke-miterlimit:10;enable-background:new    ;}
	.st7{opacity:0.71;fill:none;stroke:#009EE2;stroke-width:6;stroke-miterlimit:10;enable-background:new    ;}
	.st8{opacity:0.71;fill:none;stroke:#22B573;stroke-width:6;stroke-miterlimit:10;enable-background:new    ;}
	.st9{opacity:0.71;fill:none;stroke:#ED1C24;stroke-width:6;stroke-miterlimit:10;enable-background:new    ;}
	
		.st10{opacity:0.71;fill:none;stroke:url(#SVGID_00000072974329698118316340000009925896882508928147_);stroke-width:6;stroke-miterlimit:10;enable-background:new    ;}
	
		.st11{opacity:0.71;fill:none;stroke:url(#SVGID_00000006705485426625436700000017158143653964634264_);stroke-width:6;stroke-miterlimit:10;enable-background:new    ;}
	.st12{opacity:0.71;fill:none;stroke:#000000;stroke-width:6;stroke-miterlimit:10;enable-background:new    ;}
</style>
<pattern  y="1080" width="144.1" height="138.4" patternUnits="userSpaceOnUse" id="SVGID_0000012630552109870981229" viewBox="100.1 -216.7 144.1 138.4" style="overflow:visible;">
	<g>
		<rect x="100.1" y="-216.7" class="st0" width="144.1" height="138.4"/>
		<g>
			<rect x="100.1" y="-216.7" class="st0" width="144.1" height="138.4"/>
			<g>
				<rect x="100.1" y="-216.7" class="st0" width="144.1" height="138.4"/>
				<g>
					<path class="st1" d="M311.2-58.2c-11.8-1.4-19.4,0.3-22.6,3.1c-3,2.5-5,5.4-2.2,11.9c2.9,7.1,1.5,14.7-5.5,15.9
						c-6.2,1-10.9-4.8-11.2-12.3c-0.2-5.2-1.9-8.3-5.5-7.6s-4.6,5.9-3.6,11.8c1.4,8.1,5.5,11.8,6.2,20.2c0.5,6.1-2.9,13.7-12.5,15
						c-9.3,1.4-15.9-4.3-16.6-10.5c-0.7-6.6,3.6-10.9,3.1-17.6s-4-10.2-5.9-17.3c-2.8-10.6,1.2-19,7.8-22.7
						c14.8-8.1,22.8,3.6,36,1.6c10.9-1.7,23.4-18.2,33-19.5c8.2-1.2,13.8,4.7,15,14C327.8-62.8,321.8-56.9,311.2-58.2z M269-57.6
						c0-2.3-1.9-4.1-4.1-4.1s-4.1,1.9-4.1,4.1c0,2.3,1.9,4.2,4.1,4.2S269-55.3,269-57.6z M318.4-73c0-1-0.8-1.7-1.7-1.7
						c-1,0-1.7,0.8-1.7,1.7c0,1,0.8,1.7,1.7,1.7C317.6-71.3,318.4-72.1,318.4-73z"/>
				</g>
				<g>
					<path class="st2" d="M148.9-77.3c0,7.2,4.6,13.8-1,16.3c-8.5,3.8-28-14.3-28-36.2c0-12,8.7-19,17.8-19c12.3,0,18,8.2,18,17.5
						C155.7-89.3,148.9-85.5,148.9-77.3z M143.5-82.7c0-1.2-0.9-2.1-2.1-2.1c-1.1,0-2.1,0.9-2.1,2.1s0.9,2.1,2.1,2.1
						S143.5-81.6,143.5-82.7z"/>
					<path class="st3" d="M223.6-53.8c-7.9,2.7-19.4-15.3-17.7-27C207.1-89,213-94,219-95c7.5-1.3,12.9,2.6,13.3,7.2
						c0.6,6.3-3.6,7.5-4.2,15C227.5-65.7,231.8-56.7,223.6-53.8z M219.8-81.4c0-1.4-1.2-2.6-2.6-2.6c-1.4,0-2.6,1.2-2.6,2.6
						c0,1.4,1.2,2.6,2.6,2.6C218.6-78.8,219.8-79.9,219.8-81.4z"/>
					<path class="st2" d="M119.5-76.3c0,1.4-1.2,2.6-2.6,2.6s-2.6-1.2-2.6-2.6s1.2-2.6,2.6-2.6C118.3-78.9,119.5-77.7,119.5-76.3z"
						/>
					<path class="st3" d="M184.7-84c0.7,8.1,12.7,7,17.9,14.2c10.5,14.5-1.2,46.4-21.6,46.4c-11.7,0-24.2-9.7-24.2-29.2
						c0-15.8,10.2-21.5,8.2-42.2c-1-10.8-12.5-20.3-12.5-34.8c0-5.9,3.6-13.4,11.6-13.4c7.1,0,10.8,5.9,10.8,12.9
						c0,6.8-5.4,15.7,1.4,19.1c5.2,2.6,13.2-4.8,19.5-6.8c5.2-1.6,12.4,0.2,14.8,8.5c2.5,8.9-3.2,14.8-11.6,16.7
						C192.6-91.2,184.1-90.5,184.7-84z M168.7-114.6c0-1.8-1.5-3.3-3.3-3.3c-1.8,0-3.3,1.5-3.3,3.3s1.5,3.3,3.3,3.3
						C167.2-111.3,168.7-112.8,168.7-114.6z M194.7-104.9c1.3,0,2.3-1,2.3-2.3s-1-2.3-2.3-2.3c-1.3,0-2.3,1-2.3,2.3
						C192.3-105.9,193.4-104.9,194.7-104.9z M174.7-45.2c0-1.8-1.5-3.3-3.3-3.3c-1.8,0-3.3,1.5-3.3,3.3s1.5,3.3,3.3,3.3
						C173.2-41.9,174.7-43.4,174.7-45.2z"/>
					<path class="st1" d="M167-58.2c-11.8-1.4-19.4,0.3-22.6,3.1c-3,2.5-5,5.4-2.2,11.9c2.9,7.1,1.5,14.7-5.5,15.9
						c-6.2,1-10.9-4.8-11.2-12.3c-0.2-5.2-1.9-8.3-5.5-7.6s-4.6,5.9-3.6,11.8c1.4,8.1,5.5,11.8,6.2,20.2c0.5,6.1-2.9,13.7-12.4,15
						c-9.3,1.4-15.9-4.3-16.6-10.5c-0.7-6.6,3.6-10.9,3.1-17.6s-4-10.2-5.9-17.3c-2.8-10.6,1.2-19,7.8-22.7
						c14.8-8.1,22.8,3.6,36,1.6c10.9-1.7,23.4-18.2,33-19.5c8.2-1.2,13.8,4.7,15,14C183.6-62.8,177.7-56.9,167-58.2z M124.8-57.6
						c0-2.3-1.9-4.1-4.2-4.1s-4.2,1.9-4.2,4.1c0,2.3,1.9,4.2,4.2,4.2S124.8-55.3,124.8-57.6z M174.3-73c0-1-0.8-1.7-1.7-1.7
						c-1,0-1.7,0.8-1.7,1.7c0,1,0.8,1.7,1.7,1.7S174.3-72.1,174.3-73z"/>
				</g>
				<g>
					<path class="st3" d="M290.4-104.7c0,6.2-4.1,10.7-8.6,11.6s-8.3-1.3-13,1.2c-4.8,2.6-7.1,11.1-16.8,11.1c-8,0-15.2-8-15.2-18.9
						c0-20.2,13.1-29.2,25.6-29.2C279-128.9,290.4-116.3,290.4-104.7z M270.7-119c0-2.1-1.7-3.8-3.8-3.8c-2.1,0-3.8,1.7-3.8,3.8
						s1.7,3.8,3.8,3.8S270.7-116.9,270.7-119z"/>
					<path class="st1" d="M311.2-196.5c-11.8-1.4-19.4,0.4-22.6,3.1c-3,2.5-5,5.4-2.2,11.9c2.9,7.1,1.5,14.7-5.5,15.9
						c-6.2,1-10.9-4.8-11.2-12.3c-0.2-5.2-1.9-8.3-5.5-7.6c-3.6,0.7-4.6,5.9-3.6,11.8c1.4,8.1,5.5,11.8,6.2,20.2
						c0.5,6.1-2.9,13.7-12.5,15c-9.3,1.4-15.9-4.3-16.6-10.6c-0.7-6.6,3.6-10.9,3.1-17.6s-4-10.2-5.9-17.3
						c-2.8-10.6,1.2-19,7.8-22.6c14.8-8.1,22.8,3.6,36,1.6c10.9-1.7,23.4-18.2,33-19.5c8.2-1.2,13.8,4.7,15,14
						C327.8-201.2,321.8-195.3,311.2-196.5z M269-196c0-2.3-1.9-4.1-4.1-4.1s-4.1,1.9-4.1,4.1s1.9,4.1,4.1,4.1S269-193.7,269-196z
						 M318.4-211.4c0-1-0.8-1.7-1.7-1.7c-1,0-1.7,0.8-1.7,1.7c0,1,0.8,1.7,1.7,1.7C317.6-209.6,318.4-210.4,318.4-211.4z"/>
				</g>
				<g>
					<path class="st3" d="M131.9-133c-14,2-21.2-13.3-17.7-20.3c3.7-7.3,12.1-4.2,19.5-4.2c9.7,0,16.4-7.6,20.4-2.2
						C158.4-154.2,149.1-135.5,131.9-133z M132.4-150.5c0-1.2-1-2.2-2.2-2.2c-1.2,0-2.2,1-2.2,2.2s1,2.2,2.2,2.2
						C131.4-148.3,132.4-149.3,132.4-150.5z"/>
					<path class="st2" d="M148.9-215.7c0,7.2,4.6,13.8-1,16.3c-8.5,3.8-28-14.3-28-36.2c0-12,8.7-19,17.8-19c12.3,0,18,8.2,18,17.5
						C155.7-227.7,148.9-223.9,148.9-215.7z M143.5-221.1c0-1.1-0.9-2.1-2.1-2.1c-1.1,0-2.1,0.9-2.1,2.1c0,1.1,0.9,2.1,2.1,2.1
						S143.5-219.9,143.5-221.1z"/>
					<path class="st3" d="M146.3-104.7c0,6.2-4.1,10.7-8.6,11.6s-8.3-1.3-13,1.2c-4.8,2.6-7.1,11.1-16.8,11.1c-8,0-15.2-8-15.2-18.9
						c0-20.2,13.1-29.2,25.6-29.2C134.9-128.9,146.3-116.3,146.3-104.7z M126.5-119c0-2.1-1.7-3.8-3.8-3.8c-2.1,0-3.8,1.7-3.8,3.8
						s1.7,3.8,3.8,3.8C124.8-115.2,126.5-116.9,126.5-119z"/>
					<path class="st1" d="M145.6-128.4c0,1.3-1.1,2.4-2.4,2.4s-2.4-1.1-2.4-2.4c0-1.3,1.1-2.4,2.4-2.4S145.6-129.7,145.6-128.4z"/>
					<path class="st3" d="M229.3-146.9c-3.2,4.7,1,10.7-1.4,15.2c-2.4,4.5-6.7,5-9.9,2.6c-3.6-2.8-3.4-6.6-8.3-8.8
						c-5.5-2.5-18,2.2-19.7-7.3c-0.9-4.8,2.4-8.6,7.3-9.7c6.1-1.4,9.4-0.2,15.4-3.1c6.1-2.9,11.2-9,22.1-12.1
						c10.4-3,16.1,1.6,16.6,5.9C252.4-155.7,234.3-154.2,229.3-146.9z M227-154.3c0-1.2-1-2.2-2.2-2.2c-1.2,0-2.2,1-2.2,2.2
						c0,1.2,1,2.2,2.2,2.2C226-152.1,227-153.1,227-154.3z"/>
					<path class="st2" d="M256.2-107.7c0,17.2-14.5,25.5-27,22.8c-10.3-2.2-12.8-17.3-16.7-26.2c-3.7-8.6-8.8-22.5-20.2-22.5
						c-11.2,0-12.8,14.5-23.7,14.5c-11,0-24.5-15.7-24.5-39.7c0-14.7,9.8-31.5,20.8-30.7c11.7,0.8,4.5,19.7,15.3,19.7
						c9.5,0,7.9-16.3,9.2-23.3c1.7-9,6.8-14.2,18.5-13.2c14.4,1.2,22.3,13.5,18.9,23.3c-4,11.4-23.9,17.3-21.5,30.5
						c1.4,7.6,13,12,26,16.2C245.9-131.5,256.2-124.9,256.2-107.7z M211.3-183.5c0,1.8,1.5,3.3,3.3,3.3c1.8,0,3.3-1.5,3.3-3.3
						s-1.5-3.3-3.3-3.3C212.8-186.8,211.3-185.4,211.3-183.5z M164.6-158.6c0-1-0.8-1.7-1.7-1.7c-1,0-1.7,0.8-1.7,1.7
						c0,1,0.8,1.7,1.7,1.7S164.6-157.7,164.6-158.6z M182.1-147.9c0-2.1-1.7-3.8-3.8-3.8s-3.8,1.7-3.8,3.8s1.7,3.8,3.8,3.8
						S182.1-145.8,182.1-147.9z M201.9-163.5c0-0.9-0.7-1.6-1.6-1.6c-0.9,0-1.6,0.7-1.6,1.6c0,0.9,0.7,1.6,1.6,1.6
						C201.2-161.9,201.9-162.6,201.9-163.5z M231.6-108.8c0-1.8-1.4-3.2-3.2-3.2c-1.8,0-3.2,1.4-3.2,3.2s1.4,3.2,3.2,3.2
						C230.2-105.6,231.6-107,231.6-108.8z"/>
					<path class="st3" d="M223.6-192.2c-7.9,2.7-19.4-15.3-17.7-27c1.2-8.2,7.1-13.2,13.1-14.2c7.5-1.3,12.9,2.6,13.3,7.2
						c0.6,6.3-3.6,7.5-4.2,15C227.5-204.1,231.8-195.1,223.6-192.2z M219.8-219.7c0-1.4-1.2-2.6-2.6-2.6c-1.4,0-2.6,1.2-2.6,2.6
						c0,1.4,1.2,2.6,2.6,2.6C218.6-217.1,219.8-218.3,219.8-219.7z"/>
					<path class="st2" d="M119.5-214.7c0,1.4-1.2,2.6-2.6,2.6s-2.6-1.2-2.6-2.6c0-1.4,1.2-2.6,2.6-2.6
						C118.3-217.3,119.5-216.1,119.5-214.7z"/>
					<path class="st2" d="M253.5-127.9c0-8.4-5.1-15.2-11.3-15.2c-6.2,0-11.3,6.8-11.3,15.2s5.1,12.4,11.3,12.4
						C248.4-115.5,253.5-119.5,253.5-127.9z"/>
					<path class="st3" d="M184.7-222.4c0.7,8.1,12.7,7,17.9,14.2c10.5,14.5-1.2,46.4-21.6,46.4c-11.7,0-24.2-9.7-24.2-29.2
						c0-15.8,10.2-21.5,8.2-42.2c-1-10.8-12.5-20.3-12.5-34.7c0-6,3.6-13.5,11.5-13.5c7.1,0,10.8,6,10.8,12.9
						c0,6.8-5.4,15.7,1.4,19.1c5.2,2.6,13.2-4.8,19.5-6.7c5.2-1.6,12.4,0.2,14.8,8.5c2.5,8.9-3.2,14.8-11.6,16.7
						C192.6-229.5,184.1-228.8,184.7-222.4z M168.7-253c0-1.8-1.5-3.3-3.3-3.3c-1.8,0-3.3,1.5-3.3,3.3s1.5,3.3,3.3,3.3
						C167.2-249.7,168.7-251.1,168.7-253z M194.7-243.3c1.3,0,2.3-1,2.3-2.3s-1-2.3-2.3-2.3c-1.3,0-2.3,1-2.3,2.3
						C192.3-244.3,193.4-243.3,194.7-243.3z M174.7-183.6c0-1.8-1.5-3.3-3.3-3.3c-1.8,0-3.3,1.5-3.3,3.3s1.5,3.3,3.3,3.3
						C173.2-180.3,174.7-181.8,174.7-183.6z"/>
					<path class="st1" d="M167-196.5c-11.8-1.4-19.4,0.4-22.6,3.1c-3,2.5-5,5.4-2.2,11.9c2.9,7.1,1.5,14.7-5.5,15.9
						c-6.2,1-10.9-4.8-11.2-12.3c-0.2-5.2-1.9-8.3-5.5-7.6c-3.6,0.7-4.6,5.9-3.6,11.8c1.4,8.1,5.5,11.8,6.2,20.2
						c0.5,6.1-2.9,13.7-12.4,15c-9.3,1.4-15.9-4.3-16.6-10.6c-0.7-6.6,3.6-10.9,3.1-17.6s-4-10.2-5.9-17.3
						c-2.8-10.6,1.2-19,7.8-22.6c14.8-8.1,22.8,3.6,36,1.6c10.9-1.7,23.4-18.2,33-19.5c8.2-1.2,13.8,4.7,15,14
						C183.6-201.2,177.7-195.3,167-196.5z M124.8-196c0-2.3-1.9-4.1-4.2-4.1s-4.2,1.9-4.2,4.1s1.9,4.1,4.2,4.1
						S124.8-193.7,124.8-196z M174.3-211.4c0-1-0.8-1.7-1.7-1.7c-1,0-1.7,0.8-1.7,1.7c0,1,0.8,1.7,1.7,1.7S174.3-210.4,174.3-211.4z
						"/>
					<path class="st1" d="M230.3-174.2c0,0.8-0.6,1.4-1.4,1.4s-1.4-0.6-1.4-1.4s0.6-1.4,1.4-1.4S230.3-175,230.3-174.2z"/>
					<path class="st2" d="M235.8-212.6c0,1.2-1,2.2-2.2,2.2c-1.2,0-2.2-1-2.2-2.2s1-2.2,2.2-2.2
						C234.8-214.8,235.8-213.8,235.8-212.6z"/>
					<path class="st3" d="M152.3-189.4c0,0.7-0.5,1.2-1.2,1.2c-0.7,0-1.2-0.5-1.2-1.2s0.5-1.2,1.2-1.2
						C151.8-190.6,152.3-190.1,152.3-189.4z"/>
					<path class="st3" d="M148.7-120.9c0,0.8-0.6,1.4-1.4,1.4s-1.4-0.6-1.4-1.4c0-0.8,0.6-1.4,1.4-1.4S148.7-121.7,148.7-120.9z"/>
					<path class="st2" d="M233.2-142.9c0,0.7-0.5,1.2-1.2,1.2c-0.7,0-1.2-0.5-1.2-1.2s0.5-1.2,1.2-1.2
						C232.7-144.1,233.2-143.6,233.2-142.9z"/>
					<path class="st1" d="M196-125c0,1.9-1.5,3.4-3.4,3.4s-3.4-1.5-3.4-3.4s1.5-3.4,3.4-3.4S196-126.9,196-125z"/>
					<path class="st2" d="M200.9-85.1c0,1.2-0.9,2.1-2.1,2.1s-2.1-0.9-2.1-2.1s0.9-2.1,2.1-2.1S200.9-86.3,200.9-85.1z"/>
					<path class="st2" d="M162.1-91.4c0,0.9-0.7,1.6-1.6,1.6s-1.6-0.7-1.6-1.6s0.7-1.6,1.6-1.6C161.4-93,162.1-92.3,162.1-91.4z"/>
					<circle class="st1" cx="233.2" cy="-205.5" r="2.6"/>
					<circle class="st3" cx="223.2" cy="-170.6" r="2.4"/>
					<path class="st2" d="M127.8-164c0,1.4-1.2,2.6-2.6,2.6s-2.6-1.2-2.6-2.6c0-1.4,1.2-2.6,2.6-2.6
						C126.6-166.7,127.8-165.5,127.8-164z"/>
					<path class="st3" d="M122.8-171.1c0,0.7-0.6,1.3-1.3,1.3s-1.3-0.6-1.3-1.3c0-0.7,0.6-1.3,1.3-1.3S122.8-171.8,122.8-171.1z"/>
					<path class="st2" d="M187-119.2c0,0.9-0.7,1.6-1.6,1.6s-1.6-0.7-1.6-1.6c0-0.9,0.7-1.6,1.6-1.6
						C186.3-120.8,187-120.1,187-119.2z"/>
				</g>
				<g>
					<path class="st3" d="M85.1-146.9c-3.2,4.7,1,10.7-1.4,15.2c-2.4,4.5-6.7,5-9.9,2.6c-3.6-2.8-3.4-6.6-8.3-8.8
						c-5.5-2.5-18,2.2-19.7-7.3c-0.9-4.8,2.4-8.6,7.3-9.7c6.1-1.4,9.3-0.2,15.4-3.1c6.1-2.9,11.2-9,22.1-12.1
						c10.4-3,16.1,1.6,16.6,5.9C108.3-155.7,90.1-154.2,85.1-146.9z M82.9-154.3c0-1.2-1-2.2-2.2-2.2s-2.2,1-2.2,2.2
						c0,1.2,1,2.2,2.2,2.2S82.9-153.1,82.9-154.3z"/>
					<path class="st2" d="M112.1-107.7c0,17.2-14.5,25.5-27,22.8c-10.3-2.2-12.8-17.3-16.7-26.2c-3.7-8.6-8.8-22.5-20.2-22.5
						c-11.2,0-12.8,14.5-23.7,14.5c-11,0-24.5-15.7-24.5-39.7c0.1-14.6,9.9-31.4,20.9-30.6c11.7,0.8,4.5,19.7,15.3,19.7
						c9.5,0,7.9-16.3,9.2-23.3c1.7-9,6.8-14.2,18.5-13.2c14.4,1.2,22.3,13.5,18.9,23.3c-4,11.4-23.9,17.3-21.5,30.5
						c1.3,7.6,13,12,26,16.2C101.8-131.5,112.1-124.9,112.1-107.7z M67.2-183.5c0,1.8,1.5,3.3,3.3,3.3s3.3-1.5,3.3-3.3
						s-1.5-3.3-3.3-3.3C68.6-186.8,67.2-185.4,67.2-183.5z M20.5-158.6c0-1-0.8-1.7-1.7-1.7s-1.7,0.8-1.7,1.7c0,1,0.8,1.7,1.7,1.7
						S20.5-157.7,20.5-158.6z M37.9-147.9c0-2.1-1.7-3.8-3.8-3.8s-3.8,1.7-3.8,3.8s1.7,3.8,3.8,3.8S37.9-145.8,37.9-147.9z
						 M57.8-163.5c0-0.9-0.7-1.6-1.6-1.6s-1.6,0.7-1.6,1.6c0,0.9,0.7,1.6,1.6,1.6S57.8-162.6,57.8-163.5z M87.5-108.8
						c0-1.8-1.4-3.2-3.2-3.2s-3.2,1.4-3.2,3.2s1.4,3.2,3.2,3.2C86-105.6,87.5-107,87.5-108.8z"/>
					<path class="st2" d="M109.3-127.9c0-8.4-5.1-15.2-11.3-15.2c-6.3,0-11.3,6.8-11.3,15.2s5.1,12.4,11.3,12.4
						S109.3-119.5,109.3-127.9z"/>
				</g>
			</g>
		</g>
	</g>
</pattern>
<pattern  y="1080" width="108.3" height="109.6" patternUnits="userSpaceOnUse" id="SVGID_1_" viewBox="47.8 -219.3 108.3 109.6" style="overflow:visible;">
	<g>
		<rect x="47.8" y="-219.3" class="st0" width="108.3" height="109.6"/>
		<g>
			<rect x="47.8" y="-219.3" class="st0" width="108.3" height="109.6"/>
			<g>
				<rect x="47.8" y="-219.3" class="st0" width="108.3" height="109.6"/>
				<g>
					<path class="st4" d="M135.2-75c0-0.1,0.1-0.2,0.2-0.2c12.9-0.1,24.8-3.3,34-11.5c-8,5.6-22.9,7.5-31.5,3.6
						c-0.1,0-0.2-0.2-0.1-0.3s0.1-0.2,0.2-0.2c10.7,0.3,19.3-3,26-9c-6.9-0.4-12.6-4.7-12.6-9.8c0-0.1,0.1-0.2,0.2-0.2
						s0.2,0,0.3,0.1c1.1,2.5,4.8,3.8,8.6,2.9c4.2-1,7-4.2,6.3-7.2c-0.5-2-2.4-3.4-4.9-3.8c-0.1,0-0.2-0.1-0.2-0.3s0.1-0.2,0.2-0.2
						c1.1-0.1,2.2-0.1,3.3,0c6.5,0.6,11.5,4.6,11.9,9.2c4.7-0.6,8.9-3.2,10.4-6.8c0-0.1,0.2-0.2,0.3-0.2s0.2,0.1,0.2,0.2
						c0.4,4.8-1.3,7.8-5,10.9c5.4-2.1,11.4-2.2,17.2,0.5c0.1,0,0.2,0.2,0.1,0.3s-0.1,0.2-0.2,0.2c-4.9,0.2-8.4,1.8-11.7,5.1
						c18.2-5.1,33.1,6.2,27.9,23.1c0,0.1-0.1,0.2-0.3,0.2c-0.1,0-0.2-0.1-0.2-0.2c-0.9-9.7-7.7-16.1-17.9-17.1
						c5.4,2.1,11,7,11.6,15.5c0,0.1-0.1,0.2-0.2,0.3s-0.2,0-0.3-0.1c-2.8-6.2-8.3-9.3-14.2-9.8c6.3,2.6,10.4,8.6,11.6,16.4
						c0,0.1-0.1,0.2-0.2,0.3c-0.1,0-0.2,0-0.3-0.1C202-70.8,193.7-76,183.5-72c-10.6,4.1-15.3,16.4-16.3,25c0,0.1-0.1,0.2-0.2,0.2
						c-0.1,0-0.2-0.1-0.3-0.2c-3.7-15.7,3.6-31.9,16.6-38.8c-7.1,2-13.4,6.3-17,13.4c-8.3,1-14,3.9-16.9,9.2
						c-0.1,0.1-0.2,0.2-0.3,0.1c-0.1,0-0.2-0.1-0.2-0.3c0.2-2.1,0.9-6.3,4.1-8.3c-7,0-12.5-0.9-17.8-3
						C135.3-74.8,135.2-74.9,135.2-75z M164.7-21.6c-0.1-0.1-0.2-0.1-0.3,0s-0.1,0.2-0.1,0.3c1.6,2.8,0.1,6.8-3.1,6.8
						c-5.7,0-8.5-10.8-7.6-20.6c2.2,5.8,4,8.1,7.4,10.8c0.1,0.1,0.2,0.1,0.3,0s0.1-0.2,0.1-0.3c-4.9-9.1-5.9-16.1-5.9-24.1
						c1.5,6,3.2,9.3,8.1,14.4c0.1,0.1,0.2,0.1,0.3,0s0.1-0.2,0.1-0.3c-5.3-11.6-4.9-24.4-0.9-34.3c0-0.1,0-0.2-0.1-0.3
						s-0.2-0.1-0.3,0c-5.2,2.6-8.3,4.2-12.8,10.4c1.4,7.4,0.2,11-3.2,17.2c3.9-9.9,1.8-23.9-8.2-29.6c-0.1-0.1-0.2,0-0.3,0.1
						s-0.1,0.2,0,0.3c3.8,4,6.5,10.6,4.2,17.9c1.5-10.4-7.6-19.1-17.8-19.1c-9.6,0-16.2,7.5-15.6,14.9c0.5,7.4,5.4,11,9.7,12.5
						c0.1,0,0.2,0,0.3-0.1c0.1-0.1,0.1-0.2,0-0.3c-5.6-5.7-6.4-16.5,3.6-19.8c-5.9,5.1-3.7,16.8,5.7,17.7c0.1,0,0.2-0.1,0.3-0.2
						c0-0.1,0-0.2-0.1-0.3c-2-1.3-3.7-3.8-3.7-6.6c0-4.7,3.4-6.5,5.7-6.5c3.4,0,6.3,3.3,6.3,8.2c0,5.8-5.3,10.7-12,11.4
						c-6.6,0.7-12.8-2.2-15.8-6.5c-0.1-0.1-0.2-0.1-0.3-0.1s-0.2,0.2-0.1,0.3c3,11.7,16.8,16.9,26.9,9.5c-6.6,7.5-17,7.6-25.7-0.1
						c-0.1-0.1-0.2-0.1-0.3,0c-0.1,0.1-0.1,0.2-0.1,0.3c2.7,5.4,9.2,11.8,18.6,10.9c8.6-0.9,13.5-9,14.5-15.7
						c0.6,8.5-1.4,14.5-8.8,20.1c-0.1,0.1-0.1,0.2-0.1,0.3c0.1,0.1,0.2,0.2,0.3,0.1c6.8-2,12.2-5.4,15.1-12.5
						c0,6.2-2.1,12.4-7.5,16.5c-0.1,0.1-0.1,0.2-0.1,0.3c0.1,0.1,0.2,0.2,0.3,0.1c3.4-1,6.2-2.5,8.1-5.2
						c1.3,11.1,6.5,17.7,12.5,17.7c4.1,0,7.2-3,7.2-7.9C169.5-15.4,168-19.4,164.7-21.6z M263.9-113.2c-3.2-3.9-9.5-5.4-16.4-4
						c0.5-4.3-0.3-8.8-1.6-11.5c-0.1-0.1-0.2-0.2-0.3-0.1c-0.1,0.1-0.2,0.1-0.2,0.3c0.4,8.8-4.6,15.8-13.4,18.9
						c6.9-4.8,8.9-14.2,5.6-19.1c-0.1-0.1-0.2-0.1-0.3-0.1s-0.2,0.2-0.1,0.3c0.4,2.1-0.6,4.7-2.7,6.7c-2.9,2.8-6.9,3.4-8.8,1.4
						c-2-2-1.2-5.9,1.7-8.8c1.1-1,2.3-1.8,3.4-2.2c0.1,0,0.2-0.1,0.2-0.3c0-0.1-0.1-0.2-0.2-0.2c-6.4-0.6-10.8,3.2-13.5,7.9
						c-2.8,4.7-7.6,8.4-13.2,7.7c-0.1,0-0.2,0.1-0.3,0.2c0,0.1,0,0.2,0.1,0.3c2.8,1.7,5.9,2.4,9.9,1.1c-5.8,4.9-14.1,7.7-21.8,5.2
						c-0.1,0-0.2,0-0.3,0.1s-0.1,0.2,0,0.3c5.9,6.6,17.7,6.7,25.1,1.4c-3,4.3-7.1,7.5-14.3,8.5c-0.1,0-0.2,0.1-0.2,0.2
						c0,0.1,0.1,0.2,0.2,0.3c8.3,3.1,16.6,0,23.4-8.2c-3,6.4-7.9,11.5-14.8,14c-0.1,0-0.2,0.2-0.2,0.3s0.1,0.2,0.2,0.2
						c3.9,0.1,7.5-0.9,12.3-3.6c-3.5,5.7-2.7,15.6,2.4,22.3c0.1,0.1,0.2,0.1,0.3,0.1c0.1-0.1,0.2-0.2,0.1-0.3
						c-1.2-7.2,1.3-15.3,5.6-19.6c-2.1,7.6,0,14.6,5.9,19.6c0.1,0.1,0.2,0.1,0.3,0c0.1,0,0.1-0.1,0.2-0.2c1.2-9.4,11.8-19,20.6-19.8
						c0.1,0,0.2-0.1,0.2-0.2c0-0.1-0.1-0.2-0.2-0.3c-4.3-1-8.7-0.5-12.4,1c2.7-2.9,5.9-5.1,9.6-6.2c0.1,0,0.2-0.1,0.2-0.3
						c0-0.1-0.1-0.2-0.2-0.2c-4.5-0.3-8.9,1-12.7,3.5c4.4-6.6,11-11.5,19.4-13.5c0.1,0,0.2-0.1,0.2-0.3c0-0.1-0.1-0.2-0.2-0.2
						c-11.9-1.3-21.7,3.3-28.2,11.9c1.6-4.9,6.4-9.8,12.9-12.6c5.9-2.6,11.8-2.9,16.4-1.5c0.1,0,0.2,0,0.3-0.1
						C264-113,264-113.1,263.9-113.2z M211-37.6c4.8-10.5,4.5-18.7,0.6-29c0-0.1-0.2-0.2-0.3-0.2s-0.2,0.1-0.2,0.3
						c0.6,12.6-2.8,21.7-10.3,27.8c8.2-9.8,4.4-29.6-8.8-29.6c-9.6,0-17.5,8-19.5,17.5c0,0.1,0,0.2,0.2,0.3c0.1,0,0.2,0,0.3-0.1
						c2.8-4.8,7.4-7.8,12.5-7.8c8.1,0,10.5,6.5,10.5,11c0,6.2-4.9,11.3-8.7,11.3c-3.4,0-5-2.8-5-4.9c0-3.9,3-7.2,6.4-8.2
						c0.1,0,0.2-0.2,0.2-0.3s-0.1-0.2-0.2-0.2c-4.1,0-7.6,1.9-9.6,5.6c-0.3-2.9-0.3-4.7,0.6-7.7c0-0.1,0-0.2-0.1-0.3s-0.2,0-0.3,0.1
						c-7.4,9.4-3.8,25.6,2,32.4c-5.5-4-10.4-12.6-10.3-24.4c0-0.1-0.1-0.2-0.2-0.2c-0.1,0-0.2,0-0.3,0.2
						c-4.1,10.2-1.9,29.2,9.3,39.8c-2.9,0.4-5.9,0.4-9.1-0.7c-0.1,0-0.2,0-0.3,0.1s0,0.2,0.1,0.3c4.1,3.4,9.8,4.5,15.3,4.5
						c-4.7-5.5-3.1-16.6,4.4-16.6c5.4,0,7.8,8.3,3.6,12.8c-0.1,0.1-0.1,0.2,0,0.3s0.2,0.1,0.3,0.1c4.8-1.6,9.9-5.8,9.9-11
						c0-5-4.8-9.4-11.8-9.1c8.8-2.5,18.1,0.3,22.9,6.2c0.1,0.1,0.2,0.1,0.3,0.1c0.1-0.1,0.2-0.2,0.1-0.3
						c-2.8-10.7-12-15.2-23.4-13.7c9.3-3.8,23.2-0.5,29.4,7.3c0.1,0.1,0.2,0.1,0.3,0.1c0.1-0.1,0.2-0.2,0.1-0.3
						C220.3-30.7,216.8-35.7,211-37.6z"/>
					<path class="st5" d="M237.4-56.9c0,0.1-0.1,0.2-0.2,0.2c-12.9,0.1-24.8,3.3-34,11.5c8-5.6,22.9-7.5,31.5-3.6
						c0.1,0,0.2,0.2,0.1,0.3c0,0.1-0.1,0.2-0.2,0.2c-10.7-0.3-19.3,3-26,9c6.9,0.4,12.6,4.7,12.6,9.9c0,0.1-0.1,0.2-0.2,0.2
						c-0.1,0-0.2,0-0.3-0.1c-1.1-2.5-4.8-3.8-8.6-2.9c-4.2,1-7,4.2-6.3,7.2c0.5,2,2.4,3.4,4.9,3.8c0.1,0,0.2,0.1,0.2,0.3
						s-0.1,0.2-0.2,0.2c-1.1,0.1-2.2,0.1-3.3,0c-6.5-0.6-11.5-4.6-11.9-9.2c-4.7,0.6-8.9,3.2-10.4,6.8c0,0.1-0.2,0.2-0.3,0.1
						c-0.1,0-0.2-0.1-0.2-0.2c-0.4-4.8,1.3-7.8,5-10.8c-5.4,2.1-11.4,2.2-17.3-0.5c-0.1-0.1-0.2-0.2-0.1-0.3c0-0.1,0.1-0.2,0.2-0.2
						c4.9-0.2,8.4-1.8,11.7-5.1c-18.3,5.1-33.1-6.2-28-23.1c0-0.1,0.1-0.2,0.3-0.2c0.1,0,0.2,0.1,0.2,0.2
						c0.9,9.7,7.7,16.1,17.9,17.1c-5.4-2.1-11-7-11.6-15.5c0-0.1,0.1-0.2,0.2-0.3s0.2,0,0.3,0.1c2.8,6.1,8.3,9.3,14.2,9.8
						c-6.3-2.6-10.4-8.6-11.6-16.4c0-0.1,0.1-0.2,0.2-0.3s0.2,0,0.3,0.1c3.9,7.6,12.2,12.8,22.4,8.8c10.6-4.1,15.3-16.4,16.3-25
						c0-0.1,0.1-0.2,0.2-0.2c0.1,0,0.2,0.1,0.3,0.2c3.7,15.7-3.6,31.9-16.6,38.8c7.1-2,13.4-6.3,17-13.4c8.3-1,14-3.9,16.9-9.2
						c0.1-0.1,0.2-0.2,0.3-0.1c0.1,0,0.2,0.1,0.2,0.3c-0.2,2.1-0.9,6.3-4.1,8.3c7,0,12.5,0.9,17.8,3C237.4-57.1,237.4-57,237.4-56.9
						z M207.9-110.4c0.1,0.1,0.2,0.1,0.3,0s0.1-0.2,0-0.3c-1.6-2.8-0.1-6.8,3.1-6.8c5.7,0,8.5,10.8,7.6,20.6
						c-2.2-5.8-4-8.1-7.4-10.8c-0.1-0.1-0.2-0.1-0.3,0s-0.1,0.2-0.1,0.3c4.9,9.1,5.9,16.1,5.9,24.1c-1.5-6-3.2-9.3-8.1-14.4
						c-0.1-0.1-0.2-0.1-0.3,0s-0.1,0.2-0.1,0.3c5.3,11.6,4.9,24.5,0.9,34.3c0,0.1,0,0.2,0.1,0.3s0.2,0.1,0.3,0
						c5.2-2.6,8.3-4.2,12.8-10.4c-1.4-7.4-0.2-11.1,3.2-17.2c-3.9,9.9-1.8,23.9,8.2,29.6c0.1,0.1,0.2,0,0.3-0.1s0.1-0.2,0-0.3
						c-3.8-4-6.5-10.6-4.2-17.9c-1.5,10.4,7.6,19.1,17.8,19.1c9.6,0,16.1-7.5,15.6-14.9s-5.4-11-9.7-12.5c-0.1,0-0.2,0-0.3,0.1
						s-0.1,0.2,0,0.3c5.6,5.7,6.4,16.5-3.6,19.8c5.9-5.1,3.7-16.8-5.7-17.7c-0.1,0-0.2,0.1-0.3,0.2c0,0.1,0,0.2,0.1,0.3
						c2,1.3,3.7,3.8,3.7,6.6c0,4.7-3.4,6.5-5.7,6.5c-3.4,0-6.3-3.3-6.3-8.2c0-5.8,5.3-10.7,12-11.4c6.6-0.7,12.8,2.2,15.7,6.5
						c0.1,0.1,0.2,0.1,0.3,0.1s0.2-0.2,0.1-0.3c-3-11.7-16.8-16.9-26.9-9.5c6.6-7.5,17-7.6,25.7,0.1c0.1,0.1,0.2,0.1,0.3,0
						c0.1-0.1,0.1-0.2,0.1-0.3c-2.7-5.4-9.2-11.8-18.6-10.9c-8.6,0.9-13.5,9-14.5,15.7c-0.6-8.5,1.4-14.5,8.8-20.1
						c0.1-0.1,0.1-0.2,0.1-0.3c-0.1-0.1-0.2-0.2-0.3-0.1c-6.8,2-12.2,5.4-15.1,12.5c0-6.2,2.1-12.4,7.5-16.5
						c0.1-0.1,0.1-0.2,0.1-0.3c-0.1-0.1-0.2-0.2-0.3-0.1c-3.4,1-6.2,2.5-8.1,5.2c-1.3-11.1-6.5-17.7-12.5-17.7c-4.1,0-7.2,3-7.2,7.9
						C203.1-116.6,204.6-112.6,207.9-110.4z M108.7-18.8c3.2,3.9,9.5,5.4,16.4,4c-0.5,4.3,0.3,8.8,1.6,11.5c0.1,0.1,0.2,0.2,0.3,0.1
						c0.1,0,0.2-0.1,0.2-0.3c-0.4-8.8,4.6-15.8,13.5-18.9c-6.9,4.8-8.9,14.2-5.6,19.1c0.1,0.1,0.2,0.1,0.3,0.1s0.2-0.2,0.1-0.3
						c-0.4-2.1,0.6-4.7,2.7-6.7c2.9-2.8,6.9-3.4,8.8-1.4c2,2,1.2,6-1.7,8.8c-1.1,1-2.3,1.8-3.4,2.2c-0.1,0-0.2,0.1-0.2,0.3
						c0,0.1,0.1,0.2,0.2,0.2c6.4,0.6,10.8-3.2,13.5-7.9c2.8-4.7,7.6-8.4,13.2-7.7c0.1,0,0.2,0,0.3-0.2c0-0.1,0-0.2-0.1-0.3
						c-2.8-1.7-5.9-2.4-9.9-1.1c5.8-4.9,14.1-7.7,21.8-5.2c0.1,0,0.2,0,0.3-0.1s0.1-0.2,0-0.3c-5.9-6.6-17.7-6.7-25.1-1.4
						c3-4.3,7.1-7.5,14.3-8.5c0.1,0,0.2-0.1,0.2-0.2c0-0.1-0.1-0.2-0.2-0.3c-8.3-3.1-16.6,0-23.4,8.2c3-6.4,7.9-11.5,14.8-14
						c0.1,0,0.2-0.2,0.2-0.3s-0.1-0.2-0.2-0.2c-3.9-0.1-7.5,0.9-12.3,3.6c3.5-5.7,2.7-15.6-2.4-22.3c-0.1-0.1-0.2-0.1-0.3-0.1
						c-0.1,0.1-0.2,0.2-0.1,0.3c1.2,7.2-1.3,15.3-5.6,19.6c2.1-7.6,0-14.6-5.9-19.6c-0.1-0.1-0.2-0.1-0.3,0c-0.1,0-0.1,0.1-0.2,0.2
						c-1.2,9.4-11.8,19-20.6,19.8c-0.1,0-0.2,0.1-0.2,0.2c0,0.1,0.1,0.2,0.2,0.3c4.3,1,8.7,0.5,12.4-1c-2.7,2.9-5.9,5.1-9.6,6.2
						c-0.1,0-0.2,0.2-0.2,0.3s0.1,0.2,0.2,0.2c4.5,0.3,8.9-1,12.7-3.5c-4.4,6.6-11,11.5-19.4,13.5c-0.1,0-0.2,0.1-0.2,0.3
						c0,0.1,0.1,0.2,0.2,0.2c11.9,1.3,21.8-3.3,28.2-11.9c-1.6,4.9-6.4,9.8-12.9,12.6c-5.8,2.6-11.8,2.9-16.4,1.5
						c-0.1,0-0.2,0-0.3,0.1C108.6-19,108.6-18.8,108.7-18.8z M161.6-94.3c-4.8,10.5-4.5,18.7-0.6,29c0,0.1,0.2,0.2,0.3,0.2
						s0.2-0.1,0.2-0.3c-0.6-12.6,2.8-21.6,10.3-27.8c-8.2,9.9-4.4,29.6,8.8,29.6c9.6,0,17.5-8,19.5-17.5c0-0.1,0-0.2-0.2-0.3
						c-0.1,0-0.2,0-0.3,0.1c-2.8,4.8-7.4,7.9-12.5,7.9c-8.1,0-10.5-6.5-10.5-11c0-6.2,4.9-11.3,8.7-11.3c3.4,0,5,2.8,5,4.9
						c0,3.9-3,7.2-6.4,8.2c-0.1,0-0.2,0.2-0.2,0.3s0.1,0.2,0.2,0.2c4.1,0,7.6-1.8,9.6-5.6c0.3,2.9,0.3,4.7-0.6,7.7
						c0,0.1,0,0.2,0.1,0.3s0.2,0,0.3-0.1c7.4-9.4,3.8-25.6-2-32.4c5.5,4,10.4,12.6,10.3,24.4c0,0.1,0.1,0.2,0.2,0.2
						c0.1,0,0.2,0,0.3-0.2c4.1-10.2,1.9-29.2-9.3-39.8c2.9-0.4,5.9-0.3,9.1,0.7c0.1,0,0.2,0,0.3-0.1s0-0.2-0.1-0.3
						c-4.1-3.5-9.8-4.5-15.3-4.5c4.7,5.5,3.1,16.6-4.4,16.6c-5.4,0-7.8-8.3-3.6-12.8c0.1-0.1,0.1-0.2,0-0.3s-0.2-0.1-0.3-0.1
						c-4.8,1.7-9.9,5.8-9.9,11c0,5,4.8,9.4,11.8,9.1c-8.8,2.5-18.1-0.3-22.9-6.2c-0.1-0.1-0.2-0.1-0.3-0.1c-0.1,0.1-0.2,0.2-0.1,0.3
						c2.8,10.7,12,15.2,23.4,13.7c-9.3,3.8-23.2,0.5-29.4-7.3c-0.1-0.1-0.2-0.1-0.3-0.1s-0.2,0.2-0.1,0.3
						C152.4-101.2,155.9-96.3,161.6-94.3z"/>
				</g>
				<g>
					<path class="st4" d="M26.9-75c0-0.1,0.1-0.2,0.2-0.2c12.9-0.1,24.8-3.3,34-11.5c-8,5.6-22.9,7.5-31.5,3.6
						c-0.1,0-0.2-0.2-0.1-0.3s0.1-0.2,0.2-0.2c10.7,0.3,19.3-3,26-9c-6.9-0.4-12.6-4.7-12.6-9.8c0-0.1,0.1-0.2,0.2-0.2
						s0.2,0,0.3,0.1c1.1,2.5,4.8,3.8,8.6,2.9c4.2-1,7-4.2,6.3-7.2c-0.5-2-2.4-3.4-5-3.8c-0.1,0-0.2-0.1-0.2-0.3s0.1-0.2,0.2-0.2
						c1.1-0.1,2.2-0.1,3.3,0c6.5,0.6,11.5,4.6,12,9.2c4.7-0.6,8.9-3.2,10.4-6.8c0-0.1,0.2-0.2,0.3-0.2c0.1,0,0.2,0.1,0.2,0.2
						c0.4,4.8-1.3,7.8-5,10.9c5.4-2.1,11.4-2.2,17.2,0.5c0.1,0,0.2,0.2,0.1,0.3c0,0.1-0.1,0.2-0.2,0.2c-4.9,0.2-8.4,1.8-11.7,5.1
						c18.2-5.1,33.1,6.2,27.9,23.1c0,0.1-0.2,0.2-0.3,0.2c-0.1,0-0.2-0.1-0.2-0.2c-0.9-9.7-7.7-16.1-17.9-17.1
						c5.4,2.1,11,7,11.6,15.5c0,0.1-0.1,0.2-0.2,0.3s-0.2,0-0.3-0.1c-2.8-6.2-8.3-9.3-14.2-9.8c6.3,2.6,10.4,8.6,11.6,16.4
						c0,0.1-0.1,0.2-0.2,0.3c-0.1,0-0.2,0-0.3-0.1C93.7-70.8,85.4-76,75.1-72c-10.6,4.1-15.3,16.4-16.3,25c0,0.1-0.1,0.2-0.2,0.2
						c-0.1,0-0.2-0.1-0.3-0.2c-3.7-15.7,3.6-31.9,16.6-38.8c-7.1,2-13.4,6.3-17,13.4c-8.3,1-14,3.9-16.9,9.2
						c-0.1,0.1-0.2,0.2-0.3,0.1c-0.1,0-0.2-0.1-0.2-0.3c0.2-2.1,0.9-6.3,4.1-8.3c-7,0-12.5-0.9-17.8-3C26.9-74.8,26.9-74.9,26.9-75z
						 M56.4-21.6c-0.1-0.1-0.2-0.1-0.3,0s-0.1,0.2,0,0.3c1.6,2.8,0.1,6.8-3,6.8c-5.7,0-8.5-10.8-7.6-20.6c2.2,5.8,4,8.1,7.3,10.8
						c0.1,0.1,0.2,0.1,0.3,0s0.1-0.2,0.1-0.3c-4.9-9.1-5.9-16.1-5.9-24.1c1.5,6,3.2,9.3,8.1,14.4c0.1,0.1,0.2,0.1,0.3,0
						s0.1-0.2,0.1-0.3c-5.3-11.6-4.9-24.4-1-34.3c0-0.1,0-0.2-0.1-0.3s-0.2-0.1-0.3,0c-5.2,2.6-8.3,4.2-12.8,10.4
						c1.4,7.4,0.2,11-3.2,17.2c3.9-9.9,1.8-23.9-8.2-29.6c-0.1-0.1-0.2,0-0.3,0.1c-0.1,0.1-0.1,0.2,0,0.3c3.8,4,6.5,10.6,4.2,17.9
						C35.6-63.3,26.5-72,16.3-72C6.7-72,0.2-64.5,0.7-57.1s5.4,11,9.7,12.5c0.1,0,0.2,0,0.3-0.1s0.1-0.2,0-0.3
						c-5.6-5.7-6.4-16.5,3.6-19.8C8.4-59.7,10.6-48,20-47.1c0.1,0,0.2-0.1,0.3-0.2c0-0.1,0-0.2-0.1-0.3c-2-1.3-3.7-3.8-3.7-6.6
						c0-4.7,3.4-6.5,5.7-6.5c3.4,0,6.3,3.3,6.3,8.2c0,5.8-5.3,10.7-12,11.4c-6.6,0.7-12.8-2.2-15.8-6.5c-0.1-0.1-0.2-0.1-0.3-0.1
						s-0.2,0.5-0.2,0.6c3,11.7,16.8,16.9,26.9,9.5c-6.6,7.5-17,7.6-25.7-0.1c-0.1-0.1-0.2-0.1-0.3,0S1-37.5,1-37.4
						c2.7,5.4,9.2,11.8,18.6,10.9c8.6-0.9,13.5-9,14.5-15.7c0.6,8.5-1.4,14.5-8.8,20.1c-0.1,0.1-0.1,0.2-0.1,0.3s0.2,0.2,0.3,0.1
						c6.8-2,12.2-5.4,15-12.5c0,6.2-2.1,12.4-7.5,16.5c-0.1,0.1-0.1,0.2-0.1,0.3s0.2,0.2,0.3,0.1c3.5-1,6.2-2.5,8.1-5.2
						c1.3,11.1,6.5,17.7,12.5,17.7c4.1,0,7.2-3,7.2-7.9C61.2-15.4,59.7-19.4,56.4-21.6z M155.6-113.2c-3.2-3.9-9.5-5.4-16.4-4
						c0.5-4.3-0.3-8.8-1.6-11.5c-0.1-0.1-0.2-0.2-0.3-0.1c-0.1,0.1-0.2,0.1-0.2,0.3c0.4,8.8-4.6,15.8-13.4,18.9
						c6.9-4.8,8.9-14.2,5.6-19.1c-0.1-0.1-0.2-0.1-0.3-0.1s-0.2,0.2-0.1,0.3c0.4,2.1-0.6,4.7-2.7,6.7c-2.9,2.8-6.8,3.4-8.8,1.4
						s-1.2-5.9,1.7-8.8c1.1-1,2.3-1.8,3.4-2.2c0.1,0,0.2-0.1,0.2-0.3c0-0.1-0.1-0.2-0.2-0.2c-6.4-0.6-10.8,3.2-13.5,7.9
						c-2.8,4.7-7.6,8.4-13.2,7.7c-0.1,0-0.2,0.1-0.3,0.2c0,0.1,0,0.2,0.1,0.3c2.8,1.7,5.9,2.4,9.9,1.1c-5.8,4.9-14.1,7.7-21.8,5.2
						c-0.1,0-0.2,0-0.3,0.1c-0.1,0.1-0.1,0.2,0,0.3c5.9,6.6,17.7,6.7,25.1,1.4c-3,4.3-7.1,7.5-14.3,8.5c-0.1,0-0.2,0.1-0.2,0.2
						c0,0.1,0.1,0.2,0.2,0.3c8.3,3.1,16.6,0,23.4-8.2c-3,6.4-7.9,11.5-14.8,14c-0.1,0-0.2,0.2-0.2,0.3s0.1,0.2,0.2,0.2
						c3.9,0.1,7.5-0.9,12.3-3.6c-3.5,5.7-2.7,15.6,2.4,22.3c0.1,0.1,0.2,0.1,0.3,0.1c0.1-0.1,0.2-0.2,0.2-0.3
						c-1.2-7.2,1.3-15.3,5.6-19.6c-2.2,7.6,0,14.6,5.9,19.6c0.1,0.1,0.2,0.1,0.3,0c0.1,0,0.1-0.1,0.2-0.2c1.2-9.4,11.8-19,20.6-19.8
						c0.1,0,0.2-0.1,0.2-0.2c0-0.1-0.1-0.2-0.2-0.3c-4.3-1-8.7-0.5-12.4,1c2.7-2.9,5.9-5.1,9.6-6.2c0.1,0,0.2-0.1,0.2-0.3
						c0-0.1-0.1-0.2-0.2-0.2c-4.5-0.3-8.9,1-12.7,3.5c4.4-6.6,11-11.5,19.4-13.5c0.1,0,0.2-0.1,0.2-0.3c0-0.1-0.1-0.2-0.2-0.2
						c-11.9-1.3-21.8,3.3-28.2,11.9c1.7-4.9,6.4-9.8,12.9-12.6c5.9-2.6,11.9-2.9,16.4-1.5c0.1,0,0.2,0,0.3-0.1
						C155.7-113,155.7-113.1,155.6-113.2z M102.7-37.6c4.8-10.5,4.5-18.7,0.6-29c0-0.1-0.2-0.2-0.3-0.2c-0.1,0-0.2,0.1-0.2,0.3
						c0.6,12.6-2.8,21.7-10.3,27.8c8.2-9.8,4.3-29.6-8.8-29.6c-9.6,0-17.5,8-19.5,17.5c0,0.1,0,0.2,0.2,0.3c0.1,0,0.2,0,0.3-0.1
						c2.8-4.8,7.4-7.8,12.5-7.8c8.1,0,10.5,6.5,10.5,11c0,6.2-4.9,11.3-8.7,11.3c-3.4,0-5-2.8-5-4.9c0-3.9,3-7.2,6.4-8.2
						c0.1,0,0.2-0.2,0.2-0.3s-0.1-0.2-0.2-0.2c-4.1,0-7.6,1.9-9.6,5.6c-0.3-2.9-0.3-4.7,0.6-7.7c0-0.1,0-0.2-0.1-0.3s-0.2,0-0.3,0.1
						c-7.4,9.4-3.8,25.6,2,32.4c-5.5-4-10.4-12.6-10.3-24.4c0-0.1-0.1-0.2-0.2-0.2c-0.1,0-0.2,0-0.3,0.2
						c-4.1,10.2-1.9,29.2,9.3,39.8c-2.9,0.4-5.9,0.4-9.1-0.7c-0.1,0-0.2,0-0.3,0.1s0,0.2,0.1,0.3C66.3-1.1,72,0,77.5,0
						c-4.7-5.5-3.1-16.6,4.4-16.6c5.3,0,7.8,8.3,3.7,12.8c-0.1,0.1-0.1,0.2,0,0.3s0.2,0.1,0.3,0.1c4.8-1.6,9.9-5.8,9.9-11
						c0-5-4.8-9.4-11.8-9.1c8.8-2.5,18,0.3,22.9,6.2c0.1,0.1,0.2,0.1,0.3,0.1c0.1-0.1,0.2-0.2,0.1-0.3c-2.8-10.7-12-15.2-23.4-13.7
						c9.3-3.8,23.2-0.5,29.4,7.3c0.1,0.1,0.2,0.1,0.3,0.1c0.1-0.1,0.2-0.2,0.1-0.3C112-30.7,108.5-35.7,102.7-37.6z"/>
					<path class="st5" d="M129.1-56.9c0,0.1-0.1,0.2-0.2,0.2c-12.9,0.1-24.8,3.3-34,11.5c8-5.6,22.9-7.5,31.5-3.6
						c0.1,0,0.2,0.2,0.1,0.3c0,0.1-0.1,0.2-0.2,0.2c-10.7-0.3-19.3,3-26,9c6.9,0.4,12.6,4.7,12.6,9.9c0,0.1-0.1,0.2-0.2,0.2
						s-0.2,0-0.3-0.1c-1.1-2.5-4.8-3.8-8.6-2.9c-4.2,1-7,4.2-6.3,7.2c0.5,2,2.4,3.4,4.9,3.8c0.1,0,0.2,0.1,0.2,0.3s-0.1,0.2-0.2,0.2
						c-1.1,0.1-2.2,0.1-3.3,0c-6.5-0.6-11.5-4.6-11.9-9.2c-4.7,0.6-8.9,3.2-10.4,6.8c0,0.1-0.2,0.2-0.3,0.1c-0.1,0-0.2-0.1-0.2-0.2
						c-0.4-4.8,1.3-7.8,5-10.8c-5.4,2.1-11.4,2.2-17.3-0.5c-0.1-0.1-0.2-0.2-0.1-0.3c0-0.1,0.1-0.2,0.2-0.2
						c4.9-0.2,8.4-1.8,11.7-5.1c-18.3,5.1-33.1-6.2-28-23.1c0-0.1,0.2-0.2,0.3-0.2s0.2,0.1,0.2,0.2c0.9,9.7,7.7,16.1,17.9,17.1
						c-5.4-2.1-11-7-11.6-15.5c0-0.1,0.1-0.2,0.2-0.3s0.2,0,0.3,0.1c2.8,6.1,8.3,9.3,14.2,9.8c-6.3-2.6-10.4-8.6-11.6-16.4
						c0-0.1,0-0.2,0.2-0.3s0.2,0,0.3,0.1c3.9,7.6,12.2,12.8,22.5,8.8C91.3-63.9,96-76.2,97-84.8c0-0.1,0.1-0.2,0.2-0.2
						s0.2,0.1,0.3,0.2c3.7,15.6-3.6,31.9-16.6,38.8c7.1-2,13.4-6.3,17-13.4c8.3-1,14-3.9,16.9-9.2c0.1-0.1,0.2-0.2,0.3-0.1
						c0.1,0,0.2,0.1,0.2,0.3c-0.2,2.1-0.9,6.3-4.1,8.3c7,0,12.5,0.9,17.8,3C129-57.1,129.1-57,129.1-56.9z M99.6-110.4
						c0.1,0.1,0.2,0.1,0.3,0s0.1-0.2,0-0.3c-1.6-2.8-0.1-6.8,3.1-6.8c5.7,0,8.5,10.8,7.6,20.6c-2.2-5.8-4-8.1-7.3-10.8
						c-0.1-0.1-0.2-0.1-0.3,0c-0.1,0.1-0.1,0.2-0.1,0.3c4.9,9.1,5.9,16.1,5.9,24.1c-1.5-6-3.2-9.3-8.1-14.4c-0.1-0.1-0.2-0.1-0.3,0
						c-0.1,0.1-0.1,0.2-0.1,0.3c5.3,11.6,4.9,24.5,0.9,34.3c0,0.1,0,0.2,0.1,0.3s0.2,0.1,0.3,0c5.2-2.6,8.3-4.2,12.8-10.4
						c-1.4-7.4-0.2-11.1,3.2-17.2c-3.9,9.9-1.8,23.9,8.2,29.6c0.1,0.1,0.2,0,0.3-0.1c0.1-0.1,0.1-0.2,0-0.3
						c-3.8-4-6.5-10.6-4.2-17.9c-1.5,10.4,7.6,19.1,17.8,19.1c9.6,0,16.1-7.5,15.6-14.9s-5.4-11-9.7-12.5c-0.1,0-0.2,0-0.3,0.1
						s-0.1,0.2,0,0.3c5.6,5.7,6.4,16.5-3.6,19.8c5.9-5.1,3.7-16.8-5.7-17.7c-0.1,0-0.2,0.1-0.3,0.2c0,0.1,0,0.2,0.1,0.3
						c2,1.3,3.7,3.8,3.7,6.6c0,4.7-3.4,6.5-5.7,6.5c-3.4,0-6.3-3.3-6.3-8.2c0-5.8,5.3-10.7,12-11.4c6.6-0.7,12.8,2.2,15.8,6.5
						c0.1,0.1,0.2,0.1,0.3,0.1s0.2-0.2,0.1-0.3c-3-11.7-16.8-16.9-26.9-9.5c6.6-7.5,17-7.6,25.7,0.1c0.1,0.1,0.2,0.1,0.3,0
						s0.1-0.2,0.1-0.3c-2.7-5.4-9.2-11.8-18.6-10.9c-8.6,0.9-13.5,9-14.5,15.7c-0.6-8.5,1.4-14.5,8.8-20.1c0.1-0.1,0.1-0.2,0.1-0.3
						c-0.1-0.1-0.2-0.2-0.3-0.1c-6.8,2-12.2,5.4-15.1,12.5c0-6.2,2.1-12.4,7.5-16.5c0.1-0.1,0.1-0.2,0.1-0.3
						c-0.1-0.1-0.2-0.2-0.3-0.1c-3.4,1-6.2,2.5-8.1,5.2c-1.3-11.1-6.5-17.7-12.5-17.7c-4.1,0-7.2,3-7.2,7.9
						C94.8-116.6,96.3-112.6,99.6-110.4z M0.4-18.8c3.2,3.9,9.5,5.4,16.4,4c-0.5,4.3,0.3,8.8,1.6,11.5c0,0.1,0.2,0.2,0.3,0.1
						c0.1,0,0.2-0.1,0.2-0.3c-0.4-8.8,4.6-15.8,13.5-18.9c-6.9,4.8-8.9,14.2-5.6,19.1c0.1,0.1,0.2,0.1,0.3,0.1
						c0.1,0,0.2-0.2,0.2-0.3c-0.4-2.1,0.6-4.7,2.7-6.7c2.9-2.8,6.8-3.4,8.8-1.4s1.2,6-1.7,8.8c-1.1,1-2.3,1.8-3.5,2.2
						c-0.1,0-0.2,0.1-0.2,0.3c0,0.1,0.1,0.2,0.2,0.2C40,0.5,44.4-3.3,47.1-8c2.8-4.7,7.6-8.4,13.2-7.7c0.1,0,0.2,0,0.3-0.2
						c0-0.1,0-0.2-0.1-0.3c-2.8-1.7-5.9-2.4-9.9-1.1c5.8-4.9,14-7.7,21.8-5.2c0.1,0,0.2,0,0.3-0.1c0.1-0.1,0.1-0.2,0-0.3
						c-5.9-6.6-17.7-6.7-25.1-1.4c3-4.3,7.1-7.5,14.3-8.5c0.1,0,0.2-0.1,0.2-0.2c0-0.1,0-0.2-0.2-0.3c-8.3-3.1-16.6,0-23.5,8.2
						c3-6.4,7.9-11.5,14.8-14c0.1,0,0.2-0.2,0.2-0.3s-0.1-0.1-0.2-0.1c-3.9-0.1-7.5,0.9-12.3,3.6c3.5-5.7,2.7-15.6-2.4-22.3
						c-0.1-0.1-0.2-0.1-0.3-0.1C38.1-58.2,38-58.1,38-58c1.2,7.2-1.3,15.3-5.6,19.6c2.2-7.6,0-14.6-5.9-19.6c-0.1-0.1-0.2-0.1-0.3,0
						c-0.1,0-0.1,0.1-0.2,0.2c-1.2,9.4-11.8,19-20.6,19.8c-0.1,0-0.2,0.1-0.2,0.2c0,0.1,0.1,0.2,0.2,0.3c4.3,1,8.7,0.5,12.4-1
						c-2.7,2.9-5.9,5.1-9.6,6.2C8.1-32.3,8-32.1,8-32s0.1,0.2,0.2,0.2c4.5,0.3,8.9-1,12.7-3.5c-4.4,6.6-11,11.5-19.4,13.5
						c-0.1,0-0.2,0.1-0.2,0.3c0,0.1,0.1,0.2,0.2,0.2c11.9,1.3,21.8-3.3,28.2-11.9c-1.6,4.9-6.4,9.8-13,12.6
						C10.8-18,4.8-17.7,0.3-19.1c-0.1,0-0.2,0-0.3,0.1C0.3-19,0.3-18.8,0.4-18.8z M53.3-94.3c-4.8,10.5-4.5,18.7-0.6,29
						c0,0.1,0.2,0.2,0.3,0.2s0.2-0.1,0.2-0.3C52.6-78,56-87,63.5-93.2c-8.2,9.9-4.3,29.6,8.8,29.6c9.6,0,17.5-8,19.5-17.5
						c0-0.1,0-0.2-0.2-0.3c-0.1,0-0.2,0-0.3,0.1c-2.8,4.8-7.4,7.9-12.5,7.9c-8.1,0-10.5-6.5-10.5-11c0-6.2,4.9-11.3,8.7-11.3
						c3.4,0,5,2.8,5,4.9c0,3.9-3,7.2-6.4,8.2c-0.1,0-0.2,0.2-0.2,0.3s0.1,0.2,0.2,0.2c4.1,0,7.6-1.8,9.6-5.6
						c0.3,2.9,0.3,4.7-0.6,7.7c0,0.1,0,0.2,0.1,0.3s0.2,0,0.3-0.1c7.4-9.4,3.8-25.6-2-32.4c5.5,4,10.4,12.6,10.3,24.4
						c0,0.1,0.1,0.2,0.2,0.2s0.2,0,0.3-0.2c4.1-10.2,1.9-29.2-9.3-39.8c2.9-0.4,5.9-0.3,9.1,0.7c0.1,0,0.2,0,0.3-0.1
						c0.1-0.1,0-0.2-0.1-0.3c-4.1-3.5-9.8-4.5-15.3-4.5c4.7,5.5,3.1,16.6-4.3,16.6c-5.3,0-7.8-8.3-3.7-12.8c0.1-0.1,0.1-0.2,0-0.3
						s-0.2-0.1-0.3-0.1c-4.8,1.7-10,5.8-10,11c0,5,4.8,9.4,11.8,9.1c-8.8,2.5-18-0.3-22.9-6.2c-0.1-0.1-0.2-0.1-0.3-0.1
						c-0.1,0.1-0.2,0.2-0.1,0.3c2.8,10.7,12,15.2,23.4,13.7c-9.3,3.8-23.2,0.5-29.4-7.3c-0.1-0.1-0.2-0.1-0.3-0.1s-0.2,0.2-0.1,0.3
						C44-101.2,47.5-96.3,53.3-94.3z"/>
				</g>
				<g>
					<path class="st4" d="M135.2-184.7c0-0.1,0.1-0.2,0.2-0.2c12.9-0.1,24.8-3.3,34-11.5c-8,5.6-22.9,7.5-31.5,3.6
						c-0.1-0.1-0.2-0.2-0.1-0.3c0.1-0.1,0.1-0.2,0.2-0.2c10.7,0.3,19.3-3,26-9c-6.9-0.4-12.6-4.7-12.6-9.8c0-0.1,0.1-0.2,0.2-0.2
						s0.2,0,0.3,0.1c1.1,2.5,4.8,3.8,8.6,2.9c4.2-1,7-4.2,6.3-7.2c-0.5-2-2.4-3.4-4.9-3.8c-0.1,0-0.2-0.1-0.2-0.3
						c0-0.1,0.1-0.2,0.2-0.2c1.1-0.1,2.2-0.1,3.3,0c6.5,0.6,11.5,4.6,11.9,9.2c4.7-0.6,8.9-3.2,10.4-6.8c0-0.1,0.2-0.2,0.3-0.1
						c0.1,0.1,0.2,0.1,0.2,0.2c0.4,4.8-1.3,7.8-5,10.9c5.4-2.1,11.4-2.2,17.2,0.5c0.1,0.1,0.2,0.2,0.1,0.3c-0.1,0.1-0.1,0.2-0.2,0.2
						c-4.9,0.2-8.4,1.8-11.7,5.1c18.2-5.1,33.1,6.2,27.9,23.1c0,0.1-0.1,0.2-0.3,0.2c-0.1,0-0.2-0.1-0.2-0.2
						c-0.9-9.7-7.7-16.1-17.9-17.1c5.4,2.1,11,7,11.6,15.5c0,0.1-0.1,0.2-0.2,0.3c-0.1,0.1-0.2,0-0.3-0.1c-2.8-6.1-8.3-9.3-14.2-9.8
						c6.3,2.6,10.4,8.6,11.6,16.4c0,0.1-0.1,0.2-0.2,0.3s-0.2,0-0.3-0.1c-3.9-7.6-12.2-12.8-22.4-8.8c-10.6,4.1-15.3,16.4-16.3,25
						c0,0.1-0.1,0.2-0.2,0.2c-0.1,0-0.2-0.1-0.3-0.2c-3.7-15.7,3.6-31.9,16.6-38.8c-7.1,2-13.4,6.3-17,13.4c-8.3,1-14,3.9-16.9,9.2
						c-0.1,0.1-0.2,0.2-0.3,0.1c-0.1,0-0.2-0.1-0.2-0.3c0.2-2.1,0.9-6.3,4.1-8.3c-7,0-12.5-0.9-17.8-3
						C135.3-184.4,135.2-184.6,135.2-184.7z M164.7-131.2c-0.1-0.1-0.2-0.1-0.3,0s-0.1,0.2-0.1,0.3c1.6,2.8,0.1,6.8-3.1,6.8
						c-5.7,0-8.5-10.8-7.6-20.6c2.2,5.8,4,8.1,7.4,10.8c0.1,0.1,0.2,0.1,0.3,0c0.1-0.1,0.1-0.2,0.1-0.3c-4.9-9.1-5.9-16.1-5.9-24.1
						c1.5,6,3.2,9.3,8.1,14.4c0.1,0.1,0.2,0.1,0.3,0c0.1-0.1,0.1-0.2,0.1-0.3c-5.3-11.6-4.9-24.4-0.9-34.3c0-0.1,0-0.2-0.1-0.3
						s-0.2-0.1-0.3,0c-5.2,2.6-8.3,4.2-12.8,10.4c1.4,7.4,0.2,11.1-3.2,17.2c3.9-9.9,1.8-23.9-8.2-29.6c-0.1-0.1-0.2,0-0.3,0.1
						s-0.1,0.2,0,0.3c3.8,4,6.5,10.6,4.2,17.9c1.5-10.4-7.6-19.1-17.8-19.1c-9.6,0-16.2,7.5-15.6,14.9c0.5,7.4,5.4,11,9.7,12.5
						c0.1,0,0.2,0,0.3-0.1c0.1-0.1,0.1-0.2,0-0.3c-5.6-5.7-6.4-16.5,3.6-19.8c-5.9,5.1-3.7,16.8,5.7,17.7c0.1,0,0.2-0.1,0.3-0.2
						c0-0.1,0-0.2-0.1-0.3c-2-1.3-3.7-3.8-3.7-6.6c0-4.7,3.4-6.5,5.7-6.5c3.4,0,6.3,3.3,6.3,8.2c0,5.8-5.3,10.7-12,11.4
						c-6.6,0.7-12.8-2.1-15.8-6.5c-0.1-0.1-0.2-0.1-0.3-0.1s-0.2,0.2-0.1,0.3c3,11.7,16.8,16.9,26.9,9.5c-6.6,7.5-17,7.6-25.7-0.1
						c-0.1-0.1-0.2-0.1-0.3,0c-0.1,0.1-0.1,0.2-0.1,0.3c2.7,5.4,9.2,11.8,18.6,10.9c8.6-0.9,13.5-9,14.5-15.7
						c0.6,8.5-1.4,14.5-8.8,20.1c-0.1,0.1-0.1,0.2-0.1,0.3c0.1,0.1,0.2,0.2,0.3,0.1c6.8-2,12.2-5.4,15.1-12.5
						c0,6.2-2.1,12.4-7.5,16.5c-0.1,0.1-0.1,0.2-0.1,0.3s0.2,0.2,0.3,0.1c3.4-1,6.2-2.5,8.1-5.2c1.3,11.1,6.5,17.7,12.5,17.7
						c4.1,0,7.2-3,7.2-7.9C169.5-125,168-129,164.7-131.2z M263.9-222.8c-3.2-3.9-9.5-5.4-16.4-4c0.5-4.3-0.3-8.8-1.6-11.5
						c-0.1-0.1-0.2-0.2-0.3-0.1c-0.1,0.1-0.2,0.1-0.2,0.3c0.4,8.8-4.6,15.8-13.4,18.9c6.9-4.8,8.9-14.2,5.6-19.1
						c-0.1-0.1-0.2-0.1-0.3-0.1s-0.2,0.2-0.1,0.3c0.4,2.1-0.6,4.7-2.7,6.7c-2.9,2.8-6.9,3.4-8.8,1.4c-2-2-1.2-5.9,1.7-8.8
						c1.1-1,2.3-1.8,3.4-2.2c0.1,0,0.2-0.1,0.2-0.3c0-0.1-0.1-0.2-0.2-0.2c-6.5-0.5-10.8,3.3-13.6,8s-7.6,8.4-13.2,7.7
						c-0.1,0-0.2,0.1-0.3,0.2c0,0.1,0,0.2,0.1,0.3c2.8,1.7,5.9,2.4,9.9,1.1c-5.8,4.9-14.1,7.7-21.8,5.2c-0.1,0-0.2,0-0.3,0.1
						c-0.1,0.1-0.1,0.2,0,0.3c5.9,6.6,17.7,6.7,25.1,1.4c-3,4.3-7.1,7.5-14.3,8.5c-0.1,0-0.2,0.1-0.2,0.2c0,0.1,0.1,0.2,0.2,0.3
						c8.3,3.1,16.6,0,23.4-8.2c-3,6.4-7.9,11.5-14.8,14c-0.1,0-0.2,0.2-0.2,0.3c0,0.1,0.1,0.2,0.2,0.2c3.9,0.1,7.5-0.9,12.3-3.6
						c-3.5,5.7-2.7,15.6,2.4,22.3c0.1,0.1,0.2,0.1,0.3,0.1c0.1-0.1,0.2-0.2,0.1-0.3c-1.2-7.2,1.3-15.3,5.6-19.6
						c-2.1,7.6,0,14.6,5.9,19.6c0.1,0.1,0.2,0.1,0.3,0c0.1,0,0.1-0.1,0.2-0.2c1.2-9.4,11.8-19,20.6-19.8c0.1,0,0.2-0.1,0.2-0.2
						c0-0.1-0.1-0.2-0.2-0.3c-4.3-1-8.7-0.5-12.4,1c2.7-2.9,5.9-5.1,9.6-6.2c0.1,0,0.2-0.1,0.2-0.3c0-0.1-0.1-0.2-0.2-0.2
						c-4.5-0.3-8.9,1-12.7,3.5c4.4-6.6,11-11.5,19.4-13.5c0.1,0,0.2-0.1,0.2-0.3c0-0.1-0.1-0.2-0.2-0.2
						c-11.9-1.3-21.7,3.3-28.2,11.9c1.6-4.9,6.4-9.8,12.9-12.6c5.9-2.5,11.8-2.9,16.4-1.5c0.1,0,0.2,0,0.3-0.1
						C264-222.6,264-222.7,263.9-222.8z M211-147.3c4.8-10.5,4.5-18.7,0.6-29.1c0-0.1-0.2-0.2-0.3-0.2s-0.2,0.1-0.2,0.3
						c0.6,12.6-2.8,21.6-10.3,27.8c8.2-9.9,4.4-29.6-8.8-29.6c-9.6,0-17.5,8-19.5,17.5c0,0.1,0,0.2,0.2,0.3c0.1,0,0.2,0,0.3-0.1
						c2.8-4.8,7.4-7.9,12.5-7.9c8.1,0,10.5,6.5,10.5,11c0,6.2-4.9,11.3-8.7,11.3c-3.4,0-5-2.8-5-4.9c0-3.9,3-7.2,6.4-8.2
						c0.1,0,0.2-0.1,0.2-0.3c0-0.1-0.1-0.2-0.2-0.2c-4.1,0-7.6,1.9-9.6,5.6c-0.3-2.9-0.3-4.7,0.6-7.7c0-0.1,0-0.2-0.1-0.3
						s-0.2,0-0.3,0.1c-7.4,9.4-3.8,25.6,2,32.4c-5.5-4-10.4-12.6-10.3-24.4c0-0.1-0.1-0.2-0.2-0.2c-0.1,0-0.2,0-0.3,0.1
						c-4.1,10.2-1.9,29.2,9.3,39.8c-2.9,0.4-5.9,0.3-9.1-0.7c-0.1,0-0.2,0-0.3,0.1s0,0.2,0.1,0.3c4.1,3.5,9.8,4.5,15.3,4.5
						c-4.7-5.5-3.1-16.6,4.4-16.6c5.4,0,7.8,8.3,3.6,12.8c-0.1,0.1-0.1,0.2,0,0.3c0.1,0.1,0.2,0.1,0.3,0.1c4.8-1.6,9.9-5.8,9.9-11
						c0-5-4.8-9.4-11.8-9.1c8.8-2.5,18.1,0.3,22.9,6.2c0.1,0.1,0.2,0.1,0.3,0.1c0.1-0.1,0.2-0.2,0.1-0.3
						c-2.8-10.7-12-15.2-23.4-13.7c9.3-3.8,23.2-0.5,29.4,7.3c0.1,0.1,0.2,0.1,0.3,0.1c0.1-0.1,0.2-0.2,0.1-0.3
						C220.3-140.4,216.8-145.3,211-147.3z"/>
					<path class="st5" d="M237.4-166.5c0,0.1-0.1,0.2-0.2,0.2c-12.9,0.1-24.8,3.3-34,11.5c8-5.6,22.9-7.5,31.5-3.6
						c0.1,0.1,0.2,0.2,0.1,0.3s-0.1,0.2-0.2,0.2c-10.7-0.3-19.3,3-26,9c6.9,0.4,12.6,4.7,12.6,9.9c0,0.1-0.1,0.2-0.2,0.2
						c-0.1,0-0.2,0-0.3-0.1c-1.1-2.5-4.8-3.8-8.6-2.9c-4.2,1-7,4.2-6.3,7.2c0.5,2,2.4,3.4,4.9,3.8c0.1,0,0.2,0.1,0.2,0.3
						c0,0.1-0.1,0.2-0.2,0.2c-1.1,0.1-2.2,0.1-3.3,0c-6.5-0.6-11.5-4.6-11.9-9.2c-4.7,0.6-8.9,3.2-10.4,6.8c0,0.1-0.2,0.2-0.3,0.1
						c-0.1-0.1-0.2-0.1-0.2-0.2c-0.4-4.8,1.3-7.8,5-10.9c-5.4,2.1-11.4,2.2-17.3-0.5c-0.1-0.1-0.2-0.2-0.1-0.3
						c0-0.1,0.1-0.2,0.2-0.2c4.9-0.2,8.4-1.8,11.7-5.1c-18.3,5.1-33.1-6.2-28-23.1c0-0.1,0.1-0.2,0.3-0.2c0.1,0,0.2,0.1,0.2,0.2
						c0.9,9.7,7.7,16.1,17.9,17.1c-5.4-2.1-11-7-11.6-15.5c0-0.1,0.1-0.2,0.2-0.3s0.2,0,0.3,0.1c2.8,6.1,8.3,9.3,14.2,9.8
						c-6.3-2.6-10.4-8.6-11.6-16.4c0-0.1,0.1-0.2,0.2-0.3c0.1-0.1,0.2,0,0.3,0.1c3.9,7.6,12.2,12.8,22.4,8.8
						c10.6-4.1,15.3-16.4,16.3-25c0-0.1,0.1-0.2,0.2-0.2c0.1,0,0.2,0.1,0.3,0.2c3.8,15.7-3.5,32-16.5,38.9c7.1-2,13.4-6.3,17-13.4
						c8.3-1,14-3.9,16.9-9.2c0.1-0.1,0.2-0.2,0.3-0.1c0.1,0,0.2,0.1,0.2,0.3c-0.2,2.1-0.9,6.3-4.1,8.3c7,0,12.5,0.9,17.8,3
						C237.4-166.8,237.4-166.7,237.4-166.5z M207.9-220c0.1,0.1,0.2,0.1,0.3,0s0.1-0.2,0-0.3c-1.6-2.8-0.1-6.8,3.1-6.8
						c5.7,0,8.5,10.8,7.6,20.6c-2.2-5.8-4-8.1-7.4-10.8c-0.1-0.1-0.2-0.1-0.3,0c-0.1,0.1-0.1,0.2-0.1,0.3c4.9,9.1,5.9,16.1,5.9,24.1
						c-1.5-6-3.2-9.3-8.1-14.4c-0.1-0.1-0.2-0.1-0.3,0s-0.1,0.2-0.1,0.3c5.3,11.6,4.9,24.4,0.9,34.3c0,0.1,0,0.2,0.1,0.3
						s0.2,0.1,0.3,0c5.2-2.6,8.3-4.2,12.8-10.4c-1.4-7.4-0.2-11.1,3.2-17.2c-3.9,9.9-1.8,23.9,8.2,29.6c0.1,0.1,0.2,0,0.3-0.1
						s0.1-0.2,0-0.3c-3.8-4-6.5-10.6-4.2-17.9c-1.5,10.4,7.6,19.1,17.8,19.1c9.6,0,16.1-7.5,15.6-14.9c-0.5-7.4-5.4-11-9.7-12.5
						c-0.1,0-0.2,0-0.3,0.1s-0.1,0.2,0,0.3c5.6,5.7,6.4,16.5-3.6,19.8c5.9-5.1,3.7-16.8-5.7-17.7c-0.1,0-0.2,0.1-0.3,0.2
						c0,0.1,0,0.2,0.1,0.3c2,1.3,3.7,3.8,3.7,6.6c0,4.7-3.4,6.5-5.7,6.5c-3.4,0-6.3-3.3-6.3-8.2c0-5.8,5.3-10.7,12-11.4
						c6.6-0.7,12.8,2.1,15.7,6.5c0.1,0.1,0.2,0.1,0.3,0.1s0.2-0.2,0.1-0.3c-3-11.7-16.8-16.9-26.9-9.5c6.6-7.5,17-7.6,25.7,0.1
						c0.1,0.1,0.2,0.1,0.3,0c0.1-0.1,0.1-0.2,0.1-0.3c-2.7-5.4-9.2-11.8-18.6-10.9c-8.6,0.9-13.5,9-14.5,15.7
						c-0.6-8.5,1.4-14.5,8.8-20.1c0.1-0.1,0.1-0.2,0.1-0.3c0-0.1-0.2-0.2-0.3-0.1c-6.8,2-12.2,5.4-15.1,12.5
						c0-6.2,2.1-12.4,7.5-16.5c0.1-0.1,0.1-0.2,0.1-0.3c-0.1-0.1-0.2-0.2-0.3-0.1c-3.4,1-6.2,2.5-8.1,5.2
						c-1.3-11.1-6.5-17.7-12.5-17.7c-4.1,0-7.2,3-7.2,7.9C203.1-226.2,204.6-222.2,207.9-220z M108.7-128.4c3.2,3.9,9.5,5.4,16.4,4
						c-0.5,4.3,0.3,8.8,1.6,11.5c0.1,0.1,0.2,0.2,0.3,0.1s0.2-0.1,0.2-0.3c-0.4-8.8,4.6-15.8,13.5-18.9c-6.9,4.8-8.9,14.2-5.6,19.1
						c0.1,0.1,0.2,0.1,0.3,0.1s0.2-0.2,0.1-0.3c-0.4-2.1,0.6-4.7,2.7-6.7c2.9-2.8,6.9-3.4,8.8-1.4c2,2,1.2,5.9-1.7,8.8
						c-1.1,1-2.3,1.8-3.4,2.2c-0.1,0-0.2,0.1-0.2,0.3c0,0.1,0.1,0.2,0.2,0.2c6.4,0.6,10.8-3.2,13.5-7.9c2.8-4.7,7.6-8.4,13.2-7.7
						c0.1,0,0.2-0.1,0.3-0.2c0-0.1,0-0.2-0.1-0.3c-2.8-1.7-5.9-2.4-9.9-1.1c5.8-4.9,14.1-7.7,21.8-5.2c0.1,0,0.2,0,0.3-0.1
						c0.1-0.1,0.1-0.2,0-0.3c-5.9-6.6-17.7-6.7-25.1-1.4c3-4.3,7.1-7.5,14.3-8.5c0.1,0,0.2-0.1,0.2-0.2s-0.1-0.2-0.2-0.3
						c-8.3-3.1-16.6,0-23.4,8.2c3-6.4,7.9-11.5,14.8-14c0.1,0,0.2-0.2,0.2-0.3c0-0.1-0.1-0.2-0.2-0.2c-3.9-0.1-7.5,0.9-12.3,3.6
						c3.5-5.7,2.7-15.6-2.4-22.3c-0.1-0.1-0.2-0.1-0.3-0.1c-0.1,0.1-0.2,0.2-0.1,0.3c1.2,7.2-1.3,15.3-5.6,19.6
						c2.1-7.6,0-14.6-5.9-19.6c-0.1-0.1-0.2-0.1-0.3,0c-0.1,0-0.1,0.1-0.2,0.2c-1.2,9.4-11.8,19-20.6,19.8c-0.1,0-0.2,0.1-0.2,0.2
						s0.1,0.2,0.2,0.3c4.3,1,8.7,0.5,12.4-1c-2.7,2.9-5.9,5.1-9.6,6.2c-0.1,0-0.2,0.1-0.2,0.3c0,0.1,0.1,0.2,0.2,0.2
						c4.5,0.3,8.9-1,12.7-3.5c-4.4,6.6-11,11.5-19.4,13.5c-0.1,0-0.2,0.1-0.2,0.3c0,0.1,0.1,0.2,0.2,0.2
						c11.9,1.3,21.8-3.3,28.2-11.9c-1.6,4.9-6.4,9.8-12.9,12.6c-5.8,2.5-11.8,2.9-16.4,1.5c-0.1,0-0.2,0-0.3,0.1
						C108.6-128.6,108.6-128.5,108.7-128.4z M161.6-204c-4.8,10.5-4.5,18.7-0.6,29.1c0,0.1,0.2,0.2,0.3,0.2s0.2-0.1,0.2-0.3
						c-0.6-12.6,2.8-21.6,10.3-27.8c-8.2,9.9-4.4,29.6,8.8,29.6c9.6,0,17.5-8,19.5-17.5c0-0.1,0-0.2-0.2-0.3c-0.1,0-0.2,0-0.3,0.1
						c-2.8,4.8-7.4,7.9-12.5,7.9c-8.1,0-10.5-6.5-10.5-11c0-6.2,4.9-11.3,8.7-11.3c3.4,0,5,2.8,5,4.9c0,3.9-3,7.2-6.4,8.2
						c-0.1,0-0.2,0.1-0.2,0.3c0,0.1,0.1,0.2,0.2,0.2c4.1,0,7.6-1.9,9.6-5.6c0.3,2.9,0.3,4.7-0.6,7.7c0,0.1,0,0.2,0.1,0.3
						c0.1,0.1,0.2,0,0.3-0.1c7.4-9.4,3.8-25.6-2-32.4c5.5,4,10.4,12.6,10.3,24.4c0,0.1,0.1,0.2,0.2,0.2c0.1,0,0.2,0,0.3-0.1
						c4.1-10.2,1.9-29.2-9.3-39.8c2.9-0.4,5.9-0.4,9.1,0.7c0.1,0,0.2,0,0.3-0.1c0.1-0.1,0-0.2-0.1-0.3c-3.8-3.6-9.5-4.7-14.9-4.7
						c4.7,5.5,3.1,16.6-4.4,16.6c-5.4,0-7.8-8.3-3.6-12.8c0.1-0.1,0.1-0.2,0-0.3s-0.2-0.1-0.3-0.1c-4.8,1.7-9.9,5.8-9.9,11
						c0,5,4.8,9.4,11.8,9.1c-8.8,2.5-18.1-0.3-22.9-6.2c-0.1-0.1-0.2-0.1-0.3-0.1c-0.1,0.1-0.2,0.2-0.1,0.3
						c2.8,10.7,12,15.2,23.4,13.7c-9.3,3.8-23.2,0.5-29.4-7.3c-0.1-0.1-0.2-0.1-0.3-0.1c-0.1,0.1-0.2,0.2-0.1,0.3
						C152.4-210.9,155.9-205.9,161.6-204z"/>
				</g>
				<g>
					<path class="st4" d="M26.9-184.7c0-0.1,0.1-0.2,0.2-0.2c12.9-0.1,24.8-3.3,34-11.5c-8,5.6-22.9,7.5-31.5,3.6
						c-0.1-0.1-0.2-0.2-0.1-0.3c0.1-0.1,0.1-0.2,0.2-0.2c10.7,0.3,19.3-3,26-9c-6.9-0.4-12.6-4.7-12.6-9.8c0-0.1,0.1-0.2,0.2-0.2
						s0.2,0,0.3,0.1c1.1,2.5,4.8,3.8,8.6,2.9c4.2-1,7-4.2,6.3-7.2c-0.5-2-2.4-3.4-5-3.8c-0.1,0-0.2-0.1-0.2-0.3
						c0-0.1,0.1-0.2,0.2-0.2c1.1-0.1,2.2-0.1,3.3,0c6.5,0.6,11.5,4.6,12,9.2c4.7-0.6,8.9-3.2,10.4-6.8c0-0.1,0.2-0.2,0.3-0.1
						c0.1,0,0.2,0.1,0.2,0.2c0.4,4.8-1.3,7.8-5,10.9c5.4-2.1,11.4-2.2,17.2,0.5c0.1,0.1,0.2,0.2,0.1,0.3c0,0.1-0.1,0.2-0.2,0.2
						c-4.9,0.2-8.4,1.8-11.7,5.1c18.2-5.1,33.1,6.2,27.9,23.1c0,0.1-0.2,0.2-0.3,0.2c-0.1,0-0.2-0.1-0.2-0.2
						c-0.9-9.7-7.7-16.1-17.9-17.1c5.4,2.1,11,7,11.6,15.5c0,0.1-0.1,0.2-0.2,0.3c-0.1,0.1-0.2,0-0.3-0.1c-2.8-6.1-8.3-9.3-14.2-9.8
						c6.3,2.6,10.4,8.6,11.6,16.4c0,0.1-0.1,0.2-0.2,0.3c-0.1,0-0.2,0-0.3-0.1c-3.9-7.6-12.2-12.8-22.5-8.8
						c-10.6,4.1-15.3,16.4-16.3,25c0,0.1-0.1,0.2-0.2,0.2c-0.1,0-0.2-0.1-0.3-0.2c-3.7-15.7,3.6-31.9,16.6-38.8
						c-7.1,2-13.4,6.3-17,13.4c-8.3,1-14,3.9-16.9,9.2c-0.1,0.1-0.2,0.2-0.3,0.1c-0.1,0-0.2-0.1-0.2-0.3c0.2-2.1,0.9-6.3,4.1-8.3
						c-7,0-12.5-0.9-17.8-3C26.9-184.4,26.9-184.6,26.9-184.7z M56.4-131.2c-0.1-0.1-0.2-0.1-0.3,0s-0.1,0.2,0,0.3
						c1.6,2.8,0.1,6.8-3,6.8c-5.7,0-8.5-10.8-7.6-20.6c2.2,5.8,4,8.1,7.3,10.8c0.1,0.1,0.2,0.1,0.3,0c0.1-0.1,0.1-0.2,0.1-0.3
						c-5-9.1-6-16.1-6-24.1c1.5,6,3.2,9.3,8.1,14.4c0.1,0.1,0.2,0.1,0.3,0c0.1-0.1,0.1-0.2,0.1-0.3c-5.3-11.6-4.9-24.4-1-34.3
						c0-0.1,0-0.2-0.1-0.3s-0.2-0.1-0.3,0c-5.1,2.6-8.1,4.3-12.6,10.4c1.4,7.4,0.2,11.1-3.2,17.2c3.9-9.9,1.8-23.9-8.2-29.6
						c-0.1-0.1-0.2,0-0.3,0.1c-0.1,0.1-0.1,0.2,0,0.3c3.8,4,6.5,10.6,4.2,17.9c1.5-10.4-7.6-19.1-17.8-19.1
						c-9.6,0-16.1,7.5-15.6,14.9s5.4,11,9.7,12.5c0.1,0,0.2,0,0.3-0.1c0.1-0.1,0.1-0.2,0-0.3c-5.6-5.7-6.4-16.5,3.6-19.8
						c-5.9,5.1-3.7,16.8,5.7,17.7c0.1,0,0.2-0.1,0.3-0.2c0-0.1,0-0.2-0.1-0.3c-2-1.3-3.7-3.8-3.7-6.6c0-4.7,3.4-6.5,5.7-6.5
						c3.4,0,6.3,3.3,6.3,8.2c0,5.8-5.3,10.7-12,11.4c-6.6,0.7-12.8-2.1-15.8-6.5c-0.1-0.1-0.2-0.1-0.3-0.1s-0.3,0.4-0.3,0.5
						c3,11.7,16.8,16.9,26.9,9.5c-6.6,7.5-17,7.6-25.7-0.1c-0.1-0.1-0.2-0.1-0.3,0C1-147.3,1-147.2,1-147.1
						c2.7,5.4,9.2,11.8,18.6,10.9c8.6-0.9,13.5-9,14.5-15.7c0.6,8.5-1.4,14.5-8.8,20.1c-0.1,0.1-0.1,0.2-0.1,0.3
						c0,0.1,0.2,0.2,0.3,0.1c6.8-2,12.2-5.4,15-12.5c0,6.2-2.1,12.4-7.5,16.5c-0.1,0.1-0.1,0.2-0.1,0.3c0,0.1,0.2,0.2,0.3,0.1
						c3.5-1,6.2-2.5,8.1-5.2c1.3,11.1,6.5,17.7,12.5,17.7c4.1,0,7.2-3,7.2-7.9C61.2-125,59.7-129,56.4-131.2z M155.6-222.8
						c-3.2-3.9-9.5-5.4-16.4-4c0.5-4.3-0.3-8.8-1.6-11.5c-0.1-0.1-0.2-0.2-0.3-0.1c-0.1,0.1-0.2,0.1-0.2,0.3
						c0.4,8.8-4.6,15.8-13.4,18.9c6.9-4.8,8.9-14.2,5.6-19.1c-0.1-0.1-0.2-0.1-0.3-0.1s-0.2,0.2-0.1,0.3c0.4,2.1-0.6,4.7-2.7,6.7
						c-2.9,2.8-6.8,3.4-8.8,1.4s-1.2-5.9,1.7-8.8c1.1-1,2.3-1.8,3.4-2.2c0.1,0,0.2-0.1,0.2-0.3c0-0.1-0.1-0.2-0.2-0.2
						c-6.4-0.6-10.8,3.2-13.5,7.9c-2.8,4.7-7.6,8.4-13.2,7.7c-0.1,0-0.2,0.1-0.3,0.2c0,0.1,0,0.2,0.1,0.3c2.8,1.7,5.9,2.4,9.9,1.1
						c-5.8,4.9-14.1,7.7-21.8,5.2c-0.1,0-0.2,0-0.3,0.1c-0.1,0.1-0.1,0.2,0,0.3c5.9,6.6,17.7,6.7,25.1,1.4c-3,4.3-7.1,7.5-14.3,8.5
						c-0.1,0-0.2,0.1-0.2,0.2c0,0.1,0.1,0.2,0.2,0.3c8.3,3.1,16.6,0,23.4-8.2c-3,6.4-7.9,11.5-14.8,14c-0.1,0-0.2,0.2-0.2,0.3
						c0,0.1,0.1,0.2,0.2,0.2c3.9,0.1,7.5-0.9,12.3-3.6c-3.5,5.7-2.7,15.6,2.4,22.3c0.1,0.1,0.2,0.1,0.3,0.1c0.1-0.1,0.2-0.2,0.2-0.3
						c-1.2-7.2,1.3-15.3,5.6-19.6c-2.2,7.6,0,14.6,5.9,19.6c0.1,0.1,0.2,0.1,0.3,0c0.1,0,0.1-0.1,0.2-0.2c1.2-9.4,11.8-19,20.6-19.8
						c0.1,0,0.2-0.1,0.2-0.2c0-0.1-0.1-0.2-0.2-0.3c-4.3-1-8.7-0.5-12.4,1c2.7-2.9,5.9-5.1,9.6-6.2c0.1,0,0.2-0.1,0.2-0.3
						c0-0.1-0.1-0.2-0.2-0.2c-4.5-0.3-8.9,1-12.7,3.5c4.4-6.6,11-11.5,19.4-13.5c0.1,0,0.2-0.1,0.2-0.3c0-0.1-0.1-0.2-0.2-0.2
						c-11.9-1.3-21.8,3.3-28.2,11.9c1.7-4.9,6.4-9.8,12.9-12.6c5.9-2.5,11.9-2.9,16.4-1.5c0.1,0,0.2,0,0.3-0.1
						C155.7-222.6,155.7-222.7,155.6-222.8z M102.7-147.3c4.8-10.5,4.5-18.7,0.6-29.1c0-0.1-0.2-0.2-0.3-0.2c-0.1,0-0.2,0.1-0.2,0.3
						c0.6,12.6-2.8,21.6-10.3,27.8c8.2-9.9,4.3-29.6-8.8-29.6c-9.6,0-17.5,8-19.5,17.5c0,0.1,0,0.2,0.2,0.3c0.1,0,0.2,0,0.3-0.1
						c2.8-4.8,7.4-7.9,12.5-7.9c8.1,0,10.5,6.5,10.5,11c0,6.2-4.9,11.3-8.7,11.3c-3.4,0-5-2.8-5-4.9c0-3.9,3-7.2,6.4-8.2
						c0.1,0,0.2-0.1,0.2-0.3c0-0.1-0.1-0.2-0.2-0.2c-4.1,0-7.6,1.9-9.6,5.6c-0.3-2.9-0.3-4.7,0.6-7.7c0-0.1,0-0.2-0.1-0.3
						s-0.2,0-0.3,0.1c-7.4,9.4-3.8,25.6,2,32.4c-5.5-4-10.4-12.6-10.3-24.4c0-0.1-0.1-0.2-0.2-0.2c-0.1,0-0.2,0-0.3,0.1
						c-4.1,10.2-1.9,29.2,9.3,39.8c-2.9,0.4-5.9,0.3-9.1-0.7c-0.1,0-0.2,0-0.3,0.1s0,0.2,0.1,0.3c4.1,3.5,9.8,4.5,15.3,4.5
						c-4.7-5.5-3.1-16.6,4.4-16.6c5.3,0,7.8,8.3,3.7,12.8c-0.1,0.1-0.1,0.2,0,0.3c0.1,0.1,0.2,0.1,0.3,0.1c4.8-1.6,9.9-5.8,9.9-11
						c0-5-4.8-9.4-11.8-9.1c8.8-2.5,18.1,0.3,22.9,6.2c0.1,0.1,0.2,0.1,0.3,0.1c0.1-0.1,0.2-0.2,0.1-0.3
						c-2.8-10.7-12-15.2-23.4-13.7c9.3-3.8,23.2-0.5,29.4,7.3c0.1,0.1,0.2,0.1,0.3,0.1c0.1-0.1,0.2-0.2,0.1-0.3
						C112-140.4,108.5-145.3,102.7-147.3z"/>
					<path class="st5" d="M129.1-166.5c0,0.1-0.1,0.2-0.2,0.2c-12.9,0.1-24.8,3.3-34,11.5c8-5.6,22.9-7.5,31.5-3.6
						c0.1,0.1,0.2,0.2,0.1,0.3s-0.1,0.2-0.2,0.2c-10.7-0.3-19.3,3-26,9c6.9,0.4,12.6,4.7,12.6,9.9c0,0.1-0.1,0.2-0.2,0.2
						s-0.2,0-0.3-0.1c-1.1-2.5-4.8-3.8-8.6-2.9c-4.2,1-7,4.2-6.3,7.2c0.5,2,2.4,3.4,4.9,3.8c0.1,0,0.2,0.1,0.2,0.3
						c0,0.1-0.1,0.2-0.2,0.2c-1.1,0.1-2.2,0.1-3.3,0c-6.5-0.6-11.5-4.6-11.9-9.2c-4.7,0.6-8.9,3.2-10.4,6.8c0,0.1-0.2,0.2-0.3,0.1
						c-0.1,0-0.2-0.1-0.2-0.2c-0.4-4.8,1.3-7.8,5-10.9c-5.4,2.1-11.4,2.2-17.3-0.5c-0.1-0.1-0.2-0.2-0.1-0.3c0-0.1,0.1-0.2,0.2-0.2
						c4.9-0.2,8.4-1.8,11.7-5.1c-18.3,5.1-33.1-6.2-28-23.1c0-0.1,0.2-0.2,0.3-0.2s0.2,0.1,0.2,0.2c0.9,9.7,7.7,16.1,17.9,17.1
						c-5.4-2.1-11-7-11.6-15.5c0-0.1,0.1-0.2,0.2-0.3s0.2,0,0.3,0.1c2.8,6.1,8.3,9.3,14.2,9.8c-6.3-2.6-10.4-8.6-11.6-16.4
						c0-0.1,0-0.2,0.2-0.3c0.2-0.1,0.2,0,0.3,0.1c3.9,7.6,12.2,12.8,22.5,8.8c10.6-4.1,15.3-16.4,16.3-25c0-0.1,0.1-0.2,0.2-0.2
						s0.2,0.1,0.3,0.2c3.7,15.7-3.6,32-16.7,38.9c7.1-2,13.4-6.3,17-13.4c8.3-1,14-3.9,16.9-9.2c0.1-0.1,0.2-0.2,0.3-0.1
						c0.1,0,0.2,0.1,0.2,0.3c-0.2,2.1-0.9,6.3-4.1,8.3c7,0,12.5,0.9,17.8,3C129-166.8,129.1-166.7,129.1-166.5z M99.6-220
						c0.1,0.1,0.2,0.1,0.3,0s0.1-0.2,0-0.3c-1.6-2.8-0.1-6.8,3.1-6.8c5.7,0,8.5,10.8,7.6,20.6c-2.2-5.8-4-8.1-7.3-10.8
						c-0.1-0.1-0.2-0.1-0.3,0c-0.1,0.1-0.1,0.2-0.1,0.3c4.9,9.1,5.9,16.1,5.9,24.1c-1.5-6-3.2-9.3-8.1-14.4c-0.1-0.1-0.2-0.1-0.3,0
						s-0.1,0.2-0.1,0.3c5.3,11.6,4.9,24.4,0.9,34.3c0,0.1,0,0.2,0.1,0.3s0.2,0.1,0.3,0c5.2-2.6,8.3-4.2,12.8-10.4
						c-1.4-7.4-0.2-11.1,3.2-17.2c-3.9,9.9-1.8,23.9,8.2,29.6c0.1,0.1,0.2,0,0.3-0.1c0.1-0.1,0.1-0.2,0-0.3
						c-3.8-4-6.5-10.6-4.2-17.9c-1.5,10.4,7.6,19.1,17.8,19.1c9.6,0,16.1-7.5,15.6-14.9c-0.5-7.4-5.4-11-9.7-12.5
						c-0.1,0-0.2,0-0.3,0.1s-0.1,0.2,0,0.3c5.6,5.7,6.4,16.5-3.6,19.8c5.9-5.1,3.7-16.8-5.7-17.7c-0.1,0-0.2,0.1-0.3,0.2
						c0,0.1,0,0.2,0.1,0.3c2,1.3,3.7,3.8,3.7,6.6c0,4.7-3.4,6.5-5.7,6.5c-3.4,0-6.3-3.3-6.3-8.2c0-5.8,5.3-10.7,12-11.4
						c6.6-0.7,12.8,2.1,15.8,6.5c0.1,0.1,0.2,0.1,0.3,0.1s0.2-0.2,0.1-0.3c-3-11.7-16.8-16.9-26.9-9.5c6.6-7.5,17-7.6,25.7,0.1
						c0.1,0.1,0.2,0.1,0.3,0c0.1-0.1,0.1-0.2,0.1-0.3c-2.7-5.4-9.2-11.8-18.6-10.9c-8.6,0.9-13.5,9-14.5,15.7
						c-0.6-8.5,1.4-14.5,8.8-20.1c0.1-0.1,0.1-0.2,0.1-0.3c0-0.1-0.2-0.2-0.3-0.1c-6.8,2-12.2,5.4-15.1,12.5
						c0-6.2,2.1-12.4,7.5-16.5c0.1-0.1,0.1-0.2,0.1-0.3c-0.1-0.1-0.2-0.2-0.3-0.1c-3.4,1-6.2,2.5-8.1,5.2
						c-1.3-11.1-6.5-17.7-12.5-17.7c-4.1,0-7.2,3-7.2,7.9C94.8-226.2,96.3-222.2,99.6-220z M0.4-128.4c3.2,3.9,9.5,5.4,16.4,4
						c-0.5,4.3,0.3,8.8,1.6,11.5c0,0.1,0.2,0.2,0.3,0.1s0.2-0.1,0.2-0.3c-0.4-8.8,4.6-15.8,13.5-18.9c-6.9,4.8-8.9,14.2-5.6,19.1
						c0.1,0.1,0.2,0.1,0.3,0.1c0.1,0,0.2-0.2,0.1-0.3c-0.4-2.1,0.6-4.7,2.7-6.7c2.9-2.8,6.8-3.4,8.8-1.4s1.2,5.9-1.7,8.8
						c-1.1,1-2.3,1.8-3.5,2.2c-0.1,0-0.2,0.1-0.2,0.3c0,0.1,0.1,0.2,0.2,0.2c6.4,0.6,10.8-3.2,13.5-7.9c2.8-4.7,7.6-8.4,13.2-7.7
						c0.1,0,0.2-0.1,0.3-0.2c0-0.1,0-0.2-0.1-0.3c-2.8-1.7-5.9-2.4-9.9-1.1c5.8-4.9,14.1-7.7,21.8-5.2c0.1,0,0.2,0,0.3-0.1
						c0.1-0.1,0.1-0.2,0-0.3c-5.9-6.6-17.7-6.7-25.1-1.4c3-4.3,7.1-7.5,14.3-8.5c0.1,0,0.2-0.1,0.2-0.2s0-0.2-0.2-0.3
						c-8.3-3.1-16.6,0-23.5,8.2c3-6.4,7.9-11.5,14.8-14c0.1,0,0.2-0.2,0.2-0.3s-0.1-0.2-0.2-0.2c-3.9-0.1-7.5,0.9-12.3,3.6
						c3.5-5.7,2.7-15.6-2.4-22.3c-0.1-0.1-0.2-0.1-0.3-0.1c-0.1,0.1-0.2,0.2-0.2,0.3c1.2,7.2-1.3,15.3-5.6,19.6
						c2.2-7.6,0-14.6-5.9-19.6c-0.1-0.1-0.2-0.1-0.3,0c0.1,0.1,0.1,0.2,0.1,0.3c-1.2,9.4-11.8,19-20.6,19.8c-0.1,0-0.2,0.1-0.2,0.2
						s0.1,0.2,0.2,0.3c4.3,1,8.7,0.5,12.4-1c-2.7,2.9-5.9,5.1-9.6,6.2c-0.1,0-0.2,0.1-0.2,0.3c0,0.1,0.1,0.2,0.2,0.2
						c4.5,0.3,8.9-1,12.7-3.5c-4.3,6.5-10.9,11.4-19.4,13.4c-0.1,0-0.2,0.1-0.2,0.3c0,0.1,0.1,0.2,0.2,0.2
						c11.9,1.3,21.8-3.3,28.2-11.9c-1.6,4.9-6.4,9.8-13,12.6c-5.9,2.5-11.9,2.9-16.4,1.5c-0.1,0-0.2,0-0.3,0.1
						C0.3-128.6,0.3-128.5,0.4-128.4z M53.3-204c-4.8,10.5-4.5,18.7-0.6,29.1c0,0.1,0.2,0.2,0.3,0.2s0.2-0.1,0.2-0.3
						c-0.6-12.6,2.8-21.6,10.3-27.8c-8.2,9.9-4.3,29.6,8.8,29.6c9.6,0,17.5-8,19.5-17.5c0-0.1,0-0.2-0.2-0.3c-0.1,0-0.2,0-0.3,0.1
						c-2.8,4.8-7.4,7.9-12.5,7.9c-8.1,0-10.5-6.5-10.5-11c0-6.2,4.9-11.3,8.7-11.3c3.4,0,5,2.8,5,4.9c0,3.9-3,7.2-6.4,8.2
						c-0.1,0-0.2,0.1-0.2,0.3c0,0.1,0.1,0.2,0.2,0.2c4.1,0,7.6-1.9,9.6-5.6c0.3,2.9,0.3,4.7-0.6,7.7c0,0.1,0,0.2,0.1,0.3
						c0.1,0.1,0.2,0,0.3-0.1c7.4-9.4,3.8-25.6-2-32.4c5.5,4,10.4,12.6,10.3,24.4c0,0.1,0.1,0.2,0.2,0.2s0.2,0,0.3-0.1
						c4.1-10.2,1.9-29.2-9.3-39.8c2.9-0.4,5.9-0.4,9.1,0.7c0.1,0,0.2,0,0.3-0.1c0.1-0.1,0-0.2-0.1-0.3c-3.8-3.6-9.5-4.7-15-4.7
						c4.7,5.5,3.1,16.6-4.3,16.6c-5.3,0-7.8-8.3-3.7-12.8c0.1-0.1,0.1-0.2,0-0.3s-0.2-0.1-0.3-0.1c-4.8,1.7-10,5.8-10,11
						c0,5,4.8,9.4,11.8,9.1c-8.8,2.5-18-0.3-22.9-6.2c-0.1-0.1-0.2-0.1-0.3-0.1c-0.1,0.1-0.2,0.2-0.1,0.3
						c2.8,10.7,12,15.2,23.4,13.7c-9.3,3.8-23.2,0.5-29.4-7.3c-0.1-0.1-0.2-0.1-0.3-0.1c-0.1,0.1-0.2,0.2-0.1,0.3
						C44-210.9,47.5-205.9,53.3-204z"/>
				</g>
			</g>
		</g>
	</g>
</pattern>
<path class="st6" d="M2.5,0.5v1079.3H1920V0.5H2.5z M20,662.9c-6.4,0-6.4-10,0-10S26.4,662.9,20,662.9z"/>
<path class="st7" d="M-18,498.2c197.4,26.3,240.7,47.3,240.7,62.1c0,12-28.1,30.1-52.1,11c-21.2-16.9-39.9-63.4-35.5-87.8
	c3.4-19,19.3-15.3,63.9-18c93.3-5.7,99.7-26.8,126.8-2.2c29.7,26.8,35.6,64.2,61,62.6c27.1-1.8,47.5-46.3,49.6-40.1
	c2.9,8.4-38.9,75.5-34.5,94.5c5.4,23.2,71.2-61.9,154.2-78.8c84.3-17.1,91.1,55.3,178.6,56.3c108.9,1.1,112.1-111.1,226.3-117
	c86.5-4.4,111.9,58.7,183.6,20.2c53.9-28.9,93.4-93.4,117.7-141.8l0,0c18.5-10.3,38.8,58.2,50.7,85.5c37.7,86.6,116.8,50.9,140,40.5
	c33.2-15,26.5-30.2,109.6-105.8c83-75.5,104.8-74.1,110.6-56.2c6.1,18.9-5.7,56.4-1,63c6.5,9.2,24.8-70.1,49.7-72
	c24-1.9,31.4,70,59.9,108c52.8,70.5,139-27.2,137.5-40.7c-2.6-23.2-278.2,76.6-277.5,144.2c0.3,35.6,77.2,72.3,289.2,106.9"/>
<path class="st8" d="M-18.4,506.9C179,533.2,222.3,554.2,222.3,569c0,12-28.1,30.1-52.1,11c-21.2-16.9-39.9-63.4-35.5-87.8
	c3.4-19,19.3-15.3,63.9-18c93.3-5.7,99.7-26.8,126.8-2.2c29.7,26.8,35.6,64.2,61,62.6c27.1-1.8,47.5-46.3,49.6-40.1
	c2.9,8.4-38.9,75.5-34.5,94.5c5.4,23.2,71.2-61.9,154.2-78.8c84.3-17.1,91.1,55.3,178.6,56.3c108.9,1.1,112.1-111.1,226.3-117
	c86.5-4.4,111.9,58.7,183.6,20.2c53.9-28.9,93.4-93.4,117.7-141.8l0,0c18.5-10.3,38.8,58.2,50.7,85.5c37.7,86.6,116.8,50.9,140,40.5
	c33.2-15,26.5-30.2,109.6-105.8c83-75.5,104.8-74.1,110.6-56.2c6.1,18.9-5.7,56.4-1,63c6.5,9.2,24.8-70.1,49.7-72
	c24-1.9,31.4,70,59.9,108c52.8,70.5,139-27.2,137.5-40.7c-2.6-23.2-278.2,76.6-277.5,144.2c0.3,35.6,77.2,72.3,289.2,106.9"/>
<path class="st9" d="M-13.4,514.4c197.4,26.2,240.7,47.3,240.7,62.1c0,12-28.1,30.1-52.1,11c-21.2-16.9-39.9-63.4-35.5-87.8
	c3.4-19,19.3-15.3,63.9-18c93.3-5.7,99.7-26.8,126.8-2.2c29.7,26.8,35.6,64.2,61,62.6c27.1-1.8,47.5-46.3,49.6-40.1
	c2.9,8.4-38.9,75.5-34.5,94.5c5.4,23.2,71.2-61.9,154.2-78.8c84.3-17.1,91.1,55.3,178.6,56.2c108.9,1.1,112.1-111.1,226.3-117
	c86.5-4.4,111.9,58.7,183.6,20.2c53.9-28.9,93.4-93.4,117.7-141.8l0,0c18.5-10.3,38.8,58.2,50.7,85.5c37.7,86.6,116.8,50.9,140,40.5
	c33.2-15,26.5-30.2,109.6-105.8c83-75.5,104.8-74.1,110.6-56.2c6.1,18.9-5.7,56.4-1,63c6.5,9.2,24.8-70.1,49.7-72
	c24-1.9,31.4,70,59.9,108c52.8,70.5,139-27.2,137.5-40.7c-2.6-23.2-278.2,76.6-277.5,144.2c0.3,35.6,77.2,72.3,289.2,106.9"/>
<pattern  id="SVGID_00000124122001243584871290000011423300511070712482_" xlink:href="#SVGID_1_" patternTransform="matrix(1 0 0 1 -107.12 16981.7109)">
</pattern>
<path style="opacity:0.71;fill:none;stroke:url(#SVGID_00000124122001243584871290000011423300511070712482_);stroke-width:6;stroke-miterlimit:10;enable-background:new    ;" d="
	M-15.2,712c197.4-26.2,240.7-47.3,240.7-62.1c0-12-28.1-30.1-52.1-11c-21.2,16.9-39.9,63.4-35.5,87.8c3.4,19,19.3,15.3,63.9,18
	c93.3,5.7,99.7,26.8,126.8,2.2c29.7-26.8,35.6-64.2,61-62.6c27.1,1.8,47.5,46.3,49.6,40.1c2.9-8.4-38.9-75.5-34.5-94.5
	c5.4-23.2,71.2,61.9,154.2,78.8c84.3,17.1,91.1-55.3,178.6-56.2c108.9-1.1,112.1,111.1,226.3,117c86.6,4.4,111.9-58.7,183.6-20.2
	c53.9,28.9,93.4,93.4,117.7,141.7l0,0c18.5,10.3,38.8-58.2,50.7-85.5c37.7-86.6,116.8-50.9,140-40.5c33.2,15,26.5,30.2,109.6,105.8
	c83,75.5,104.8,74.1,110.6,56.2c6.1-18.9-5.7-56.4-1-63c6.5-9.2,24.8,70.1,49.7,72c24,1.9,31.4-70,59.9-108
	c52.8-70.5,139,27.2,137.5,40.7c-2.6,23.2-278.2-76.5-277.5-144.2c0.3-35.6,77.2-72.3,289.2-106.9"/>
<pattern  id="SVGID_00000108293669741459041020000003607100699636672696_" xlink:href="#SVGID_0000012630552109870981229" patternTransform="matrix(1 0 0 1 -285.44 17160.2402)">
</pattern>
<path style="opacity:0.71;fill:none;stroke:url(#SVGID_00000108293669741459041020000003607100699636672696_);stroke-width:6;stroke-miterlimit:10;enable-background:new    ;" d="
	M-15.5,703.2C181.9,677,225.2,656,225.2,641.1c0-12-28.1-30.1-52.1-11c-21.2,16.9-39.9,63.4-35.5,87.8c3.4,19,19.3,15.3,63.9,18
	c93.3,5.7,99.7,26.8,126.8,2.2c29.7-26.8,35.6-64.2,61-62.6c27.1,1.8,47.5,46.3,49.6,40.1c2.9-8.4-38.9-75.5-34.5-94.5
	c5.4-23.2,71.2,61.9,154.2,78.8c84.3,17.1,91.1-55.3,178.6-56.2c108.9-1.1,112.1,111.1,226.3,117c86.5,4.4,111.9-58.7,183.6-20.2
	c53.9,28.9,93.4,93.4,117.7,141.7l0,0c18.5,10.3,38.8-58.2,50.7-85.5c37.7-86.6,116.8-50.9,140-40.5c33.2,15,26.5,30.2,109.6,105.8
	c83,75.5,104.8,74.1,110.6,56.2c6.1-18.9-5.7-56.4-1-63c6.5-9.2,24.8,70.1,49.7,72c24,1.9,31.4-70,59.9-108
	c52.8-70.5,139,27.2,137.5,40.7c-2.6,23.2-278.2-76.5-277.5-144.2c0.3-35.6,77.2-72.3,289.2-106.9"/>
<path class="st12" d="M-10.5,695.7c197.4-26.2,240.7-47.3,240.7-62.1c0-12-28.1-30.1-52.1-11c-21.2,16.9-39.9,63.4-35.5,87.8
	c3.4,19,19.3,15.3,63.9,18c93.3,5.7,99.7,26.8,126.8,2.2c29.7-26.8,35.6-64.2,61-62.6c27.1,1.8,47.5,46.3,49.6,40.1
	c2.9-8.4-38.9-75.5-34.5-94.5c5.4-23.2,71.2,61.9,154.2,78.8c84.3,17.1,91.1-55.3,178.6-56.2c108.9-1.1,112.1,111.1,226.3,117
	c86.5,4.4,111.9-58.7,183.6-20.2c53.9,28.9,93.4,93.4,117.7,141.8l0,0c18.5,10.3,38.8-58.2,50.7-85.5c37.7-86.6,116.8-50.9,140-40.5
	c33.2,15,26.5,30.2,109.6,105.8c83,75.5,104.8,74.1,110.6,56.2c6.1-18.9-5.7-56.4-1-63c6.5-9.2,24.8,70.1,49.7,72
	c24,1.9,31.4-70,59.9-108c52.8-70.5,139,27.2,137.5,40.7c-2.6,23.2-278.2-76.5-277.5-144.2c0.3-35.6,77.2-72.3,289.2-106.9"/>
</svg>
